<svg width="32" height="33" viewBox="0 0 32 33" fill="none" xmlns="http://www.w3.org/2000/svg">
<path d="M16.0002 11.9629C15.4536 11.9629 15.0002 11.5095 15.0002 10.9629V5.37621L14.0402 6.33621C13.6536 6.72288 13.0136 6.72288 12.6269 6.33621C12.2402 5.94954 12.2402 5.30954 12.6269 4.92288L15.2936 2.25621C15.5736 1.97621 16.0136 1.88288 16.3869 2.04288C16.7602 2.18954 17.0002 2.56288 17.0002 2.96288V10.9629C17.0002 11.5095 16.5469 11.9629 16.0002 11.9629Z" fill="#011B56"/>
<path d="M18.6672 6.62952C18.4139 6.62952 18.1606 6.53619 17.9606 6.33619L15.2939 3.66952C14.9072 3.28285 14.9072 2.64285 15.2939 2.25619C15.6806 1.86952 16.3206 1.86952 16.7072 2.25619L19.3739 4.92285C19.7606 5.30952 19.7606 5.94952 19.3739 6.33619C19.1739 6.53619 18.9206 6.62952 18.6672 6.62952Z" fill="#011B56"/>
<path d="M21.3333 30.6296H10.6667C3 30.6296 3 26.5629 3 22.9629V21.6296C3 18.6563 3 15.2963 9.33333 15.2963C10.92 15.2963 11.5067 15.6829 12.3333 16.2963C12.3733 16.3363 12.4267 16.3629 12.4667 16.4163L13.8267 17.8563C14.9733 19.0696 17.0533 19.0696 18.2 17.8563L19.56 16.4163C19.6 16.3763 19.64 16.3363 19.6933 16.2963C20.52 15.6696 21.1067 15.2963 22.6933 15.2963C29.0267 15.2963 29.0267 18.6563 29.0267 21.6296V22.9629C29 28.0563 26.4267 30.6296 21.3333 30.6296ZM9.33333 17.2963C5 17.2963 5 18.6563 5 21.6296V22.9629C5 26.6163 5 28.6296 10.6667 28.6296H21.3333C25.3067 28.6296 27 26.9363 27 22.9629V21.6296C27 18.6563 27 17.2963 22.6667 17.2963C21.7067 17.2963 21.5067 17.4163 20.9333 17.8429L19.64 19.2163C18.68 20.2296 17.3867 20.7896 16 20.7896C14.6133 20.7896 13.32 20.2296 12.36 19.2163L11.0667 17.8429C10.4933 17.4163 10.2933 17.2963 9.33333 17.2963Z" fill="#011B56"/>
<path d="M6.66699 17.2962C6.12033 17.2962 5.66699 16.8429 5.66699 16.2962V13.6296C5.66699 11.0429 5.66699 7.82956 10.5737 7.3629C11.107 7.29623 11.6137 7.70956 11.667 8.26956C11.7203 8.81623 11.3203 9.30956 10.7603 9.3629C7.66699 9.6429 7.66699 10.8962 7.66699 13.6296V16.2962C7.66699 16.8429 7.21366 17.2962 6.66699 17.2962Z" fill="#011B56"/>
<path d="M25.3342 17.2962C24.7875 17.2962 24.3342 16.8429 24.3342 16.2962V13.6296C24.3342 10.8962 24.3342 9.6429 21.2409 9.34957C20.6942 9.29623 20.2942 8.8029 20.3475 8.25623C20.4009 7.70957 20.8809 7.29623 21.4409 7.3629C26.3475 7.82957 26.3475 11.0429 26.3475 13.6296V16.2962C26.3342 16.8429 25.8809 17.2962 25.3342 17.2962Z" fill="#011B56"/>
</svg>
