<svg width="24" height="17" viewBox="-3 0 24 17" fill="none" xmlns="http://www.w3.org/2000/svg">
<g id="Group 2058">
<path id="Vector" d="M17.7778 6.39897V14.4167C17.7778 15.3945 16.9778 16.1945 16 16.1945H1.77783C0.800058 16.1945 6.10352e-05 15.3945 6.10352e-05 14.4167V3.75009C6.10352e-05 2.77232 0.800058 1.97232 1.77783 1.97232H10.7556C10.7022 2.25676 10.6667 2.55899 10.6667 2.86121C10.6667 4.17676 11.2445 5.3412 12.1511 6.15897L8.88892 8.19452L1.77783 3.75009V5.52786L8.88892 9.97229L13.6 7.02119C14.08 7.19897 14.5778 7.30564 15.1111 7.30564C16.1156 7.30564 17.0311 6.95897 17.7778 6.39897Z" fill="#011B56"/>
<circle id="Ellipse 20" cx="15.0001" cy="3.19445" r="2.99999" fill="#F17B1B"/>
</g>
</svg>
