<svg width="24" height="18" viewBox="-3.5 0 24 18" fill="none" xmlns="http://www.w3.org/2000/svg">
<path id="Vector" d="M8.49156 0.694458C3.79956 0.694458 6.10352e-05 4.50246 6.10352e-05 9.19446C6.10352e-05 13.8865 3.79956 17.6945 8.49156 17.6945C13.1921 17.6945 17.0001 13.8865 17.0001 9.19446C17.0001 4.50246 13.1921 0.694458 8.49156 0.694458ZM14.3821 5.79446H11.8746C11.6026 4.73196 11.2116 3.71196 10.7016 2.76846C12.2656 3.30396 13.5661 4.39196 14.3821 5.79446ZM8.50006 2.42846C9.20556 3.44846 9.75806 4.57896 10.1236 5.79446H6.87656C7.24206 4.57896 7.79456 3.44846 8.50006 2.42846ZM1.92106 10.8945C1.78506 10.3505 1.70006 9.78096 1.70006 9.19446C1.70006 8.60796 1.78506 8.03846 1.92106 7.49446H4.79406C4.72606 8.05546 4.67506 8.61646 4.67506 9.19446C4.67506 9.77246 4.72606 10.3335 4.79406 10.8945H1.92106ZM2.61806 12.5945H5.12556C5.39756 13.657 5.78856 14.677 6.29856 15.6205C4.73456 15.085 3.43406 14.0055 2.61806 12.5945ZM5.12556 5.79446H2.61806C3.43406 4.38346 4.73456 3.30396 6.29856 2.76846C5.78856 3.71196 5.39756 4.73196 5.12556 5.79446ZM8.50006 15.9605C7.79456 14.9405 7.24206 13.81 6.87656 12.5945H10.1236C9.75806 13.81 9.20556 14.9405 8.50006 15.9605ZM10.4891 10.8945H6.51106C6.43456 10.3335 6.37506 9.77246 6.37506 9.19446C6.37506 8.61646 6.43456 8.04696 6.51106 7.49446H10.4891C10.5656 8.04696 10.6251 8.61646 10.6251 9.19446C10.6251 9.77246 10.5656 10.3335 10.4891 10.8945ZM10.7016 15.6205C11.2116 14.677 11.6026 13.657 11.8746 12.5945H14.3821C13.5661 13.997 12.2656 15.085 10.7016 15.6205ZM12.2061 10.8945C12.2741 10.3335 12.3251 9.77246 12.3251 9.19446C12.3251 8.61646 12.2741 8.05546 12.2061 7.49446H15.0791C15.2151 8.03846 15.3001 8.60796 15.3001 9.19446C15.3001 9.78096 15.2151 10.3505 15.0791 10.8945H12.2061Z" fill="#011B56"/>
</svg>
