<svg width="24" height="21" viewBox="-0.5 0 24 21" fill="none" xmlns="http://www.w3.org/2000/svg">
<path fill-rule="evenodd" clip-rule="evenodd" d="M7.69606 20.389C6.51201 20.389 5.54785 19.4195 5.54785 18.2288V8.75463C5.54785 8.43145 5.63243 8.12528 5.75083 7.85313C5.88615 7.54696 6.07222 7.24079 6.32594 6.98565L12.1278 1.13443C12.9904 0.266952 14.2591 0.130877 14.9695 0.86228C15.4939 1.38957 15.5615 2.24004 15.1725 3.02247L13.3795 6.59444H20.3485C21.5325 6.59444 22.4967 7.54696 22.4967 8.73762V9.67313C22.5136 10.4215 22.3444 11.17 22.04 11.8503L18.7923 19.1133C18.4371 19.8958 17.6759 20.389 16.8302 20.389H7.69606ZM3.87316 7.76819H0.946867C0.642397 7.76819 0.388672 8.02333 0.388672 8.3295V19.4876C0.388672 19.7938 0.642397 20.049 0.946867 20.049H3.87316C4.17763 20.049 4.43135 19.7938 4.43135 19.4876V8.3295C4.43135 8.02333 4.17763 7.76819 3.87316 7.76819Z" fill="#11547D"/>
</svg>
