<svg width="24" height="25" viewBox="0 0 24 25" fill="none" xmlns="http://www.w3.org/2000/svg">
<path d="M19 3.44067H5C3.89543 3.44067 3 4.3361 3 5.44067V19.4407C3 20.5452 3.89543 21.4407 5 21.4407H19C20.1046 21.4407 21 20.5452 21 19.4407V5.44067C21 4.3361 20.1046 3.44067 19 3.44067Z" stroke="#344651" stroke-width="2" stroke-linecap="round" stroke-linejoin="round"/>
<path d="M8.5 10.4407C9.32843 10.4407 10 9.7691 10 8.94067C10 8.11225 9.32843 7.44067 8.5 7.44067C7.67157 7.44067 7 8.11225 7 8.94067C7 9.7691 7.67157 10.4407 8.5 10.4407Z" stroke="#344651" stroke-width="2" stroke-linecap="round" stroke-linejoin="round"/>
<path d="M21 15.4407L16 10.4407L5 21.4407" stroke="#344651" stroke-width="2" stroke-linecap="round" stroke-linejoin="round"/>
</svg>
