<svg width="60" height="61" viewBox="0 0 60 61" fill="none" xmlns="http://www.w3.org/2000/svg">
<path d="M47.6744 49.939C47.1994 49.939 46.7244 49.7639 46.3494 49.3889C45.6244 48.6639 45.6244 47.4639 46.3494 46.7389C55.3744 37.7139 55.3744 23.039 46.3494 14.039C45.6244 13.314 45.6244 12.114 46.3494 11.389C47.0744 10.664 48.2744 10.664 48.9994 11.389C59.4744 21.864 59.4744 38.9139 48.9994 49.3889C48.6244 49.7639 48.1494 49.939 47.6744 49.939Z" fill="white"/>
<path d="M12.3258 49.939C11.8508 49.939 11.3758 49.7639 11.0008 49.3889C0.525781 38.9139 0.525781 21.864 11.0008 11.389C11.7258 10.664 12.9258 10.664 13.6508 11.389C14.3758 12.114 14.3758 13.314 13.6508 14.039C4.62578 23.064 4.62578 37.7389 13.6508 46.7389C14.3758 47.4639 14.3758 48.6639 13.6508 49.3889C13.2758 49.7639 12.8008 49.939 12.3258 49.939Z" fill="white"/>
<path d="M29.9994 57.164C26.8744 57.139 23.8994 56.6389 21.1244 55.6639C20.1494 55.3139 19.6244 54.239 19.9744 53.264C20.3244 52.289 21.3744 51.7639 22.3744 52.1139C24.7744 52.9389 27.3244 53.3889 30.0244 53.3889C32.6994 53.3889 35.2744 52.9389 37.6494 52.1139C38.6244 51.7889 39.6994 52.289 40.0494 53.264C40.3994 54.239 39.8744 55.3139 38.8994 55.6639C36.0994 56.6389 33.1244 57.164 29.9994 57.164Z" fill="white"/>
<path d="M38.2499 8.73923C38.0499 8.73923 37.8249 8.71413 37.6249 8.63913C35.2249 7.81413 32.6499 7.36411 29.9749 7.36411C27.2999 7.36411 24.75 7.81413 22.35 8.63913C21.375 8.96413 20.3 8.46423 19.95 7.48923C19.6 6.51423 20.125 5.43917 21.1 5.08917C23.875 4.11417 26.8749 3.61411 29.9749 3.61411C33.0749 3.61411 36.075 4.11417 38.85 5.08917C39.825 5.43917 40.35 6.51423 40 7.48923C39.75 8.26423 39.0249 8.73923 38.2499 8.73923Z" fill="white"/>
<path d="M26.4006 42.2891C25.3006 42.2891 24.2506 42.0141 23.3256 41.4891C21.1756 40.2391 19.9756 37.789 19.9756 34.589V26.2141C19.9756 23.0141 21.1506 20.5641 23.3256 19.3141C25.4756 18.0641 28.2006 18.264 30.9756 19.864L38.2256 24.0391C41.0006 25.6391 42.5256 27.8891 42.5256 30.3891C42.5256 32.8891 41.0006 35.139 38.2256 36.739L30.9756 40.9141C29.4006 41.8391 27.8256 42.2891 26.4006 42.2891ZM26.4006 22.239C25.9506 22.239 25.5256 22.339 25.2006 22.539C24.2756 23.089 23.7256 24.4141 23.7256 26.1891V34.564C23.7256 36.339 24.2506 37.6891 25.2006 38.2141C26.1256 38.7391 27.5506 38.539 29.1006 37.664L36.3506 33.489C37.9006 32.589 38.7756 31.4641 38.7756 30.3891C38.7756 29.3141 37.9006 28.1891 36.3506 27.2891L29.1006 23.1141C28.1006 22.5391 27.1756 22.239 26.4006 22.239Z" fill="white"/>
</svg>
