<svg width="24" height="25" viewBox="0 0 24 25" fill="none" xmlns="http://www.w3.org/2000/svg">
<path fill-rule="evenodd" clip-rule="evenodd" d="M1.62865 15.1123C-0.834328 20.029 -0.0536071 22.3526 1.04312 23.4493C2.13984 24.546 4.46341 25.3267 9.39866 22.8638L19.9198 17.6032C22.55 16.2927 24.0093 14.4432 24 12.4263C23.9907 10.4094 22.5408 8.56918 19.9105 7.25869L9.38937 1.99813C4.4727 -0.446259 2.13984 0.343754 1.05241 1.43118C-0.044313 2.52791 -0.825033 4.85147 1.62865 9.75885L2.96703 12.4356L1.62865 15.1123ZM2.43726 2.81603C3.10644 2.14684 5.04894 2.0446 8.49712 3.76404L19.0275 9.0153C20.9236 9.96332 22.0203 11.2088 22.0203 12.417C22.0203 13.6253 20.9328 14.88 19.0275 15.8373L8.50641 21.0979C5.05824 22.8173 3.11574 22.7151 2.44655 22.0459C1.77736 21.3767 1.66583 19.4249 3.39457 15.986L4.78914 13.1969L11.3036 13.1878C11.8427 13.1878 12.2888 12.7416 12.2888 12.2026C12.2888 11.6635 11.8427 11.2174 11.3036 11.2174L4.63961 11.2267C4.61813 11.2267 4.59681 11.2274 4.57566 11.2288L3.39456 8.8666C1.66583 5.42772 1.76807 3.48522 2.43726 2.81603Z" fill="#344651"/>
</svg>
