<svg width="32" height="33" viewBox="0 0 32 33" fill="none" xmlns="http://www.w3.org/2000/svg">
<g id="Odnoklassniki (OK)">
<rect id="Rectangle" y="0.889008" width="32" height="32" rx="16" fill="#EE8208"/>
<path id="Vector" d="M15.9994 9.44911C17.2565 9.44911 18.279 10.4716 18.279 11.7287C18.279 12.9848 17.2562 14.0073 15.9994 14.0073C14.7431 14.0073 13.7203 12.9848 13.7203 11.7287C13.72 10.4714 14.7434 9.44911 15.9994 9.44911ZM15.9994 17.2325C19.0359 17.2325 21.5052 14.7639 21.5052 11.7287C21.5052 8.69196 19.0361 6.22234 15.9994 6.22234C12.9631 6.22234 10.4935 8.69223 10.4935 11.7287C10.4935 14.7639 12.9631 17.2325 15.9994 17.2325ZM18.2268 21.7235C19.3595 21.4655 20.4404 21.0179 21.4238 20.3997C21.7859 20.1719 22.0426 19.8096 22.1375 19.3925C22.2325 18.9755 22.1579 18.5377 21.9301 18.1757C21.8174 17.9962 21.6705 17.8408 21.4977 17.7181C21.3249 17.5955 21.1296 17.5082 20.923 17.4611C20.7165 17.414 20.5026 17.4081 20.2938 17.4437C20.0849 17.4793 19.8851 17.5557 19.7058 17.6686C17.4502 19.0867 14.547 19.0857 12.2932 17.6686C12.114 17.5557 11.9142 17.4793 11.7053 17.4436C11.4965 17.408 11.2826 17.4139 11.0761 17.461C10.8695 17.5081 10.6743 17.5954 10.5015 17.7181C10.3287 17.8407 10.1818 17.9962 10.0692 18.1757C9.84136 18.5377 9.76661 18.9753 9.8614 19.3924C9.9562 19.8094 10.2128 20.1718 10.5747 20.3997C11.5581 21.0177 12.6388 21.4653 13.7712 21.7235L10.6933 24.8019C10.3908 25.1044 10.2209 25.5148 10.221 25.9426C10.2211 26.3704 10.3911 26.7807 10.6937 27.0832C10.9963 27.3857 11.4066 27.5555 11.8344 27.5555C12.2623 27.5554 12.6725 27.3854 12.975 27.0828L15.9989 24.0584L19.0246 27.0831C19.1742 27.2329 19.3518 27.3517 19.5474 27.4328C19.743 27.5139 19.9526 27.5557 20.1644 27.5557C20.3761 27.5557 20.5857 27.5139 20.7813 27.4328C20.9769 27.3517 21.1546 27.2329 21.3042 27.0831C21.4542 26.9335 21.5733 26.7557 21.6545 26.5601C21.7357 26.3644 21.7775 26.1546 21.7775 25.9427C21.7775 25.7309 21.7357 25.5211 21.6545 25.3254C21.5733 25.1297 21.4542 24.952 21.3042 24.8024L18.2268 21.7235Z" fill="white"/>
</g>
</svg>
