<svg width="24" height="25" viewBox="0 0 24 25" fill="none" xmlns="http://www.w3.org/2000/svg">
<g id="WhatsApp">
<rect id="Rectangle" y="0.194458" width="24" height="24" rx="12" fill="#0DC143"/>
<path id="Vector" d="M17.3753 6.8002C16.0889 5.47588 14.3105 4.75696 12.4943 4.75696C8.6348 4.75696 5.5321 7.8975 5.56994 11.7191C5.56994 12.9299 5.91048 14.1029 6.47805 15.1624L5.49426 18.757L9.16453 17.811C10.1862 18.3786 11.3213 18.6434 12.4564 18.6434C16.278 18.6434 19.3807 15.5029 19.3807 11.6813C19.3807 9.82723 18.6618 8.08669 17.3753 6.8002ZM12.4943 17.4705C11.4726 17.4705 10.451 17.2056 9.58075 16.6759L9.35372 16.5624L7.15913 17.1299L7.7267 14.9732L7.57534 14.7461C5.91048 12.0597 6.70507 8.5029 9.4294 6.83804C12.1537 5.17317 15.6726 5.96777 17.3375 8.69209C19.0024 11.4164 18.2078 14.9353 15.4835 16.6002C14.6132 17.1678 13.5537 17.4705 12.4943 17.4705ZM15.824 13.2705L15.4078 13.0813C15.4078 13.0813 14.8024 12.8164 14.424 12.6272C14.3862 12.6272 14.3483 12.5894 14.3105 12.5894C14.197 12.5894 14.1213 12.6272 14.0456 12.6651C14.0456 12.6651 14.0078 12.7029 13.478 13.3083C13.4402 13.384 13.3645 13.4218 13.2889 13.4218H13.251C13.2132 13.4218 13.1375 13.384 13.0997 13.3461L12.9105 13.2705C12.4943 13.0813 12.1159 12.8543 11.8132 12.5516C11.7375 12.4759 11.624 12.4002 11.5483 12.3245C11.2835 12.0597 11.0186 11.757 10.8294 11.4164L10.7916 11.3407C10.7537 11.3029 10.7537 11.2651 10.7159 11.1894C10.7159 11.1137 10.7159 11.038 10.7537 11.0002C10.7537 11.0002 10.9051 10.811 11.0186 10.6975C11.0943 10.6218 11.1321 10.5083 11.2078 10.4326C11.2835 10.3191 11.3213 10.1678 11.2835 10.0543C11.2456 9.86507 10.7916 8.84344 10.678 8.61642C10.6024 8.5029 10.5267 8.46507 10.4132 8.42723H10.2997C10.224 8.42723 10.1105 8.42723 9.99697 8.42723C9.92129 8.42723 9.84561 8.46507 9.76994 8.46507L9.7321 8.5029C9.65642 8.54074 9.58075 8.61642 9.50507 8.65426C9.4294 8.72993 9.39156 8.80561 9.31588 8.88128C9.05102 9.22182 8.89967 9.63804 8.89967 10.0543C8.89967 10.357 8.97534 10.6597 9.08886 10.9245L9.1267 11.038C9.46724 11.757 9.92129 12.4002 10.5267 12.9678L10.678 13.1191C10.7916 13.2326 10.9051 13.3083 10.9807 13.4218C11.7753 14.1029 12.6835 14.5948 13.7051 14.8597C13.8186 14.8975 13.9699 14.8975 14.0835 14.9353C14.197 14.9353 14.3483 14.9353 14.4618 14.9353C14.651 14.9353 14.878 14.8597 15.0294 14.784C15.1429 14.7083 15.2186 14.7083 15.2943 14.6326L15.3699 14.557C15.4456 14.4813 15.5213 14.4434 15.597 14.3678C15.6726 14.2921 15.7483 14.2164 15.7862 14.1407C15.8618 13.9894 15.8997 13.8002 15.9375 13.611C15.9375 13.5353 15.9375 13.4218 15.9375 13.3461C15.9375 13.3461 15.8997 13.3083 15.824 13.2705Z" fill="white"/>
</g>
</svg>
