<svg width="24" height="25" viewBox="0 0 24 25" fill="none" xmlns="http://www.w3.org/2000/svg">
<g id="Telegram">
<rect id="Rectangle" y="0.194458" width="24" height="24" rx="12" fill="#419FD9"/>
<path id="Exclude" fill-rule="evenodd" clip-rule="evenodd" d="M14.6677 18.1366C15.5065 18.5036 15.821 17.7347 15.821 17.7347L18.0402 6.58626C18.0227 5.83487 17.0093 6.2892 17.0093 6.2892L4.58519 11.1645C4.58519 11.1645 3.99108 11.3742 4.0435 11.7411C4.09592 12.1081 4.56772 12.2828 4.56772 12.2828L7.69558 13.3312C7.69558 13.3312 8.63918 16.4242 8.83139 17.0183C9.00613 17.5949 9.1634 17.6124 9.1634 17.6124C9.33814 17.6823 9.49541 17.56 9.49541 17.56L11.5224 15.7252L14.6677 18.1366ZM15.2094 8.5608C15.2094 8.5608 15.6463 8.29869 15.6288 8.5608C15.6288 8.5608 15.6987 8.59575 15.4715 8.84038C15.2619 9.05007 10.3167 13.4885 9.65269 14.0826C9.60026 14.1176 9.56532 14.17 9.56532 14.2399L9.3731 15.8824C9.33815 16.0572 9.11099 16.0746 9.05857 15.9174L8.23729 13.2264C8.20234 13.1215 8.23729 12.9992 8.34213 12.9293L15.2094 8.5608Z" fill="white"/>
</g>
</svg>
