<svg width="24" height="25" viewBox="0 0 24 25" fill="none" xmlns="http://www.w3.org/2000/svg">
<g id="YouTube">
<rect id="Rectangle" y="0.194458" width="24" height="24" rx="12" fill="#FF0000"/>
<path id="Exclude" fill-rule="evenodd" clip-rule="evenodd" d="M17.869 7.26449C18.5115 7.43747 19.0181 7.94406 19.191 8.58656C19.5123 9.76036 19.4999 12.2068 19.4999 12.2068C19.4999 12.2068 19.4999 14.6409 19.191 15.8147C19.0181 16.4572 18.5115 16.9638 17.869 17.1368C16.6952 17.4457 12 17.4457 12 17.4457C12 17.4457 7.31712 17.4457 6.13097 17.1244C5.48846 16.9514 4.98188 16.4448 4.80889 15.8023C4.5 14.6409 4.5 12.1945 4.5 12.1945C4.5 12.1945 4.5 9.76036 4.80889 8.58656C4.98188 7.94406 5.50082 7.42511 6.13097 7.25213C7.30477 6.94324 12 6.94324 12 6.94324C12 6.94324 16.6952 6.94324 17.869 7.26449ZM14.4093 12.1944L10.5049 14.4432V9.94569L14.4093 12.1944Z" fill="white"/>
</g>
</svg>
