<svg width="32" height="33" viewBox="0 0 32 33" fill="none" xmlns="http://www.w3.org/2000/svg">
<g clip-path="url(#clip0_146_451)">
<rect y="0.889008" width="32" height="32" rx="16" fill="#675DA9"/>
<path d="M23.8366 9.01203C23.3074 8.52545 21.1647 6.96755 16.3886 6.9462C16.3886 6.9462 10.7588 6.60475 8.01432 9.123C6.4863 10.651 5.9485 12.8833 5.89301 15.6577C5.83753 18.4277 5.76497 23.6222 10.7716 25.0307H10.7759L10.7716 27.1776C10.7716 27.1776 10.7417 28.0483 11.3137 28.2233C12.0051 28.4367 12.4149 27.7752 13.0764 27.0624C13.4392 26.6697 13.9386 26.0977 14.3185 25.6581C17.7416 25.9441 20.3751 25.2868 20.6739 25.1886C21.3653 24.9624 25.2793 24.463 25.9153 19.2686C26.5726 13.9248 25.5952 10.5401 23.8366 9.01203ZM24.4171 18.893C23.8793 23.2295 20.708 23.5027 20.1233 23.6905C19.8757 23.7716 17.5623 24.3478 14.6514 24.1557C14.6514 24.1557 12.4832 26.7721 11.8088 27.4508C11.7021 27.5575 11.5783 27.6002 11.4972 27.5788C11.382 27.5489 11.3478 27.4124 11.3521 27.2118C11.3521 26.9215 11.3692 23.6392 11.3692 23.6392C11.3649 23.6392 11.3649 23.6392 11.3692 23.6392C7.1308 22.4655 7.37836 18.0436 7.42531 15.7302C7.47226 13.4168 7.90762 11.5175 9.20089 10.2413C11.5185 8.14131 16.3032 8.45289 16.3032 8.45289C20.341 8.46996 22.2745 9.68641 22.7226 10.0919C24.2122 11.3724 24.972 14.4241 24.4171 18.893Z" fill="white"/>
<path d="M18.3564 15.8113C18.2155 15.8113 18.096 15.7004 18.0875 15.5552C18.0405 14.6376 17.6094 14.1894 16.7302 14.1425C16.5808 14.1339 16.4655 14.0059 16.4741 13.8565C16.4826 13.7071 16.6107 13.5919 16.76 13.6004C17.921 13.6644 18.5698 14.3303 18.6295 15.5254C18.6381 15.6747 18.5228 15.8028 18.3734 15.8071C18.3649 15.8113 18.3606 15.8113 18.3564 15.8113Z" fill="white"/>
<path d="M19.7394 16.2724H19.7352C19.5858 16.2681 19.4663 16.1444 19.4705 15.995C19.4919 15.073 19.2272 14.3261 18.6638 13.7115C18.1047 13.0968 17.3321 12.7639 16.312 12.6914C16.1627 12.6786 16.0517 12.5505 16.0645 12.4011C16.0773 12.2517 16.2053 12.1408 16.3547 12.1536C17.5071 12.2389 18.4163 12.6401 19.065 13.3487C19.7181 14.0615 20.0339 14.9535 20.0126 16.0078C20.0083 16.1572 19.8845 16.2724 19.7394 16.2724Z" fill="white"/>
<path d="M21.156 16.8271C21.0066 16.8271 20.8871 16.7076 20.8871 16.5582C20.8743 14.9064 20.4005 13.6473 19.4359 12.704C18.4841 11.7735 17.2762 11.2998 15.8548 11.287C15.7054 11.287 15.5859 11.1632 15.5859 11.0138C15.5859 10.8644 15.7097 10.7449 15.8548 10.7449C17.4213 10.7577 18.753 11.2827 19.8072 12.3156C20.8657 13.3485 21.4078 14.7741 21.4249 16.5497C21.4291 16.7033 21.3096 16.8271 21.156 16.8271C21.1602 16.8271 21.1602 16.8271 21.156 16.8271Z" fill="white"/>
<path d="M16.7938 19.1533C16.7938 19.1533 17.1736 19.1875 17.3785 18.9356L17.7755 18.4362C17.9675 18.1887 18.4328 18.0308 18.8852 18.2826C19.137 18.4234 19.5937 18.7051 19.8754 18.9143C20.1785 19.1362 20.7931 19.6484 20.7974 19.6527C21.0919 19.9002 21.1602 20.263 20.9596 20.6515C20.9596 20.6515 20.9596 20.6557 20.9596 20.66C20.7547 21.0228 20.4772 21.3642 20.1315 21.6801C20.1273 21.6801 20.1273 21.6844 20.123 21.6844C19.837 21.9234 19.5553 22.06 19.2821 22.0898C19.248 22.0984 19.2096 22.0984 19.1584 22.0984C19.0389 22.0984 18.9193 22.0813 18.7998 22.0429L18.7913 22.0301C18.3645 21.9106 17.6559 21.6118 16.4779 20.9588C15.7096 20.5362 15.0737 20.1051 14.5316 19.674C14.2456 19.4478 13.9554 19.196 13.6566 18.8972C13.6481 18.8887 13.6353 18.8759 13.6267 18.8673C13.6182 18.8588 13.6054 18.846 13.5969 18.8375C13.5883 18.8289 13.5755 18.8161 13.567 18.8076C13.5584 18.799 13.5456 18.7862 13.5371 18.7777C13.2426 18.4789 12.9865 18.1887 12.7603 17.9027C12.3292 17.3649 11.8981 16.7247 11.4756 15.9564C10.8225 14.7741 10.5237 14.0656 10.4042 13.643L10.3914 13.6345C10.353 13.515 10.3359 13.3955 10.3359 13.276C10.3359 13.2247 10.3359 13.1863 10.3445 13.1522C10.3786 12.8747 10.5152 12.5973 10.75 12.3113C10.75 12.3071 10.7542 12.3071 10.7542 12.3028C11.0701 11.9528 11.4115 11.6796 11.7743 11.4748C11.7743 11.4748 11.7786 11.4748 11.7829 11.4748C12.167 11.2742 12.5298 11.3424 12.7816 11.637C12.7816 11.637 13.2981 12.2558 13.52 12.5589C13.7292 12.8449 14.0109 13.2973 14.1517 13.5491C14.4036 14.0016 14.2456 14.4668 13.9981 14.6589L13.4987 15.0558C13.2469 15.2607 13.281 15.6406 13.281 15.6406C13.281 15.6406 14.0194 18.449 16.7938 19.1533Z" fill="white"/>
</g>
<defs>
<clipPath id="clip0_146_451">
<rect width="32" height="32" fill="white" transform="translate(0 0.889008)"/>
</clipPath>
</defs>
</svg>
