<svg width="32" height="33" viewBox="0 0 32 33" fill="none" xmlns="http://www.w3.org/2000/svg">
<g id="Telegram" clip-path="url(#clip0_146_600)">
<g id="Telegram_2">
<rect id="Rectangle" y="0.889038" width="32" height="32" rx="16" fill="#011B56"/>
<g id="sms">
<path id="Vector" d="M21 26.139H11C7.35 26.139 5.25 24.039 5.25 20.389V13.389C5.25 9.73904 7.35 7.63904 11 7.63904H21C24.65 7.63904 26.75 9.73904 26.75 13.389V20.389C26.75 24.039 24.65 26.139 21 26.139ZM11 9.13904C8.14 9.13904 6.75 10.529 6.75 13.389V20.389C6.75 23.249 8.14 24.639 11 24.639H21C23.86 24.639 25.25 23.249 25.25 20.389V13.389C25.25 10.529 23.86 9.13904 21 9.13904H11Z" fill="white"/>
<path id="Vector_2" d="M15.9998 17.759C15.1598 17.759 14.3098 17.499 13.6598 16.969L10.5298 14.469C10.2098 14.209 10.1498 13.739 10.4098 13.419C10.6698 13.099 11.1398 13.039 11.4598 13.299L14.5898 15.799C15.3498 16.409 16.6398 16.409 17.3998 15.799L20.5298 13.299C20.8498 13.039 21.3298 13.089 21.5798 13.419C21.8398 13.739 21.7898 14.219 21.4598 14.469L18.3298 16.969C17.6898 17.499 16.8398 17.759 15.9998 17.759Z" fill="white"/>
</g>
</g>
</g>
<defs>
<clipPath id="clip0_146_600">
<rect width="32" height="32" fill="white" transform="translate(0 0.889038)"/>
</clipPath>
</defs>
</svg>
