<svg width="25" height="25" viewBox="0 0 25 25" fill="none" xmlns="http://www.w3.org/2000/svg">
<rect x="0.611328" y="0.889038" width="24" height="24" rx="12" fill="#11547D"/>
<path fill-rule="evenodd" clip-rule="evenodd" d="M18.1966 12.803C18.1966 12.803 20.4219 9.98129 20.6431 9.05396C20.7167 8.7228 20.5546 8.53725 20.1714 8.53725C20.1714 8.53725 18.8893 8.53725 18.2408 8.53725C17.7987 8.53725 17.6366 8.70947 17.504 8.96119C17.504 8.96119 16.4602 10.9604 15.1902 12.2202C14.7825 12.6274 14.5752 12.75 14.3501 12.75C14.1686 12.75 14.0849 12.614 14.0849 12.2466V9.02746C14.0849 8.57708 14.0259 8.44458 13.6133 8.44458H10.5184C10.2826 8.44458 10.1352 8.56782 10.1352 8.73597C10.1352 9.16013 10.8574 9.25592 10.8574 10.4052V12.7765C10.8574 13.2534 10.8279 13.4389 10.5773 13.4389C9.91417 13.4389 8.33725 11.3856 7.45303 9.05396C7.27615 8.57708 7.08456 8.44458 6.58345 8.44458H4.6529C4.37287 8.44458 4.1665 8.61675 4.1665 8.86841C4.1665 9.33207 4.77076 11.4782 7.14352 14.353C8.73514 16.2871 10.8279 17.3336 12.7142 17.3336C13.8638 17.3336 14.1438 17.1615 14.1438 16.7242V15.2405C14.1438 14.8696 14.3059 14.7106 14.5417 14.7106C14.807 14.7106 15.2752 14.7872 16.3692 15.7572C17.6661 16.87 17.7545 17.3336 18.462 17.3336H20.6283C20.8494 17.3336 21.0557 17.2409 21.0557 16.9097C21.0557 16.4725 20.4219 15.691 19.4493 14.7636C19.0514 14.2867 18.4029 13.7701 18.1966 13.5316C17.9019 13.2534 17.9903 13.0944 18.1966 12.803Z" fill="white"/>
</svg>
