<svg width="124" height="31" viewBox="0 0 124 31" fill="none" xmlns="http://www.w3.org/2000/svg">
<g id="_&#208;&#160;&#208;&#142;&#208;&#160;&#194;&#187;&#208;&#160;&#209;&#149;&#208;&#160;&#226;&#132;&#150;_1">
<path id="Vector" fill-rule="evenodd" clip-rule="evenodd" d="M22.252 1.13898C24.6707 0.276876 27.3049 0.00387451 29.8385 0.439718C33.9719 1.08151 37.7747 3.53852 40.0833 7.02048C41.0268 8.42859 41.7165 9.99955 42.1332 11.6376C43.1486 15.7326 42.411 20.2586 40.0306 23.7598C37.7077 27.2848 33.8521 29.7754 29.6613 30.3645C25.0251 31.1116 20.0967 29.4784 16.792 26.1545C14.6032 24.0184 13.0993 21.1974 12.5437 18.1848C12.491 17.8926 12.4814 17.5861 12.3186 17.3275C12.2467 18.1465 12.2898 18.9703 12.2803 19.7941C12.2803 22.1313 12.2755 24.4686 12.2803 26.8059C10.489 26.8155 8.69772 26.8059 6.90645 26.8059C4.59791 19.454 2.29417 12.0973 0 4.74068C4.09502 4.73589 8.19003 4.75505 12.2851 4.7311C12.3042 7.6527 12.2372 10.5743 12.3186 13.4959C12.3856 13.3761 12.4287 13.2468 12.4527 13.1127C12.8598 10.3252 14.0811 7.65749 15.9155 5.52137C17.6062 3.5481 19.8093 2.02025 22.252 1.13898ZM26.7781 9.82713C25.5041 9.9756 24.2732 10.5551 23.3679 11.4699C22.0844 12.7104 21.4713 14.6118 21.8257 16.3648C22.228 18.7452 24.3546 20.6562 26.735 20.9388C28.4688 21.1686 30.2983 20.5316 31.5053 19.2624C32.559 18.1896 33.1385 16.6809 33.1289 15.1818C33.0906 13.9317 32.6021 12.696 31.7735 11.7573C30.5618 10.3444 28.6268 9.60681 26.7781 9.82713Z" fill="white"/>
<path id="Vector_2" fill-rule="evenodd" clip-rule="evenodd" d="M53.2306 3.41876C54.4663 3.41876 55.702 3.42834 56.9376 3.41876C56.9472 6.98693 56.9329 10.5599 56.9472 14.1281C57.6082 14.1281 58.2691 14.1281 58.9301 14.1281C59.7922 12.4996 60.7501 10.9191 61.5643 9.26194C62.8958 9.21405 64.232 9.22363 65.5635 9.21884C64.3326 11.3933 63.1305 13.5869 61.8708 15.7421C63.5232 18.0746 65.142 20.4263 66.7848 22.7635C65.415 22.7635 64.0453 22.7396 62.6755 22.7683C61.3871 21.0154 60.2041 19.1858 58.9157 17.428C58.2595 17.428 57.5986 17.4232 56.9376 17.428C56.9424 19.2049 56.9329 20.9818 56.9376 22.7587C55.6972 22.7539 54.4615 22.7539 53.2258 22.7587C53.2258 16.3073 53.2162 9.86063 53.2306 3.40918V3.41876ZM68.351 11.8291C66.2005 15.4691 67.4171 21.5039 71.8521 22.7348C73.9356 23.4293 76.1339 22.7204 77.8342 21.4464C77.8342 21.7482 77.8342 22.3468 77.8342 22.6486C79.1322 22.6486 80.4253 22.6438 81.7233 22.6438C81.7185 18.1752 81.7137 13.7066 81.7233 9.23799C80.4541 9.2332 79.1896 9.2332 77.9252 9.23799C77.9348 9.56368 77.9539 10.2103 77.9635 10.5312C75.2048 7.93046 70.2524 8.51957 68.3414 11.8291H68.351ZM73.1692 11.8962C74.6779 11.2448 76.838 11.7142 77.5085 13.333C78.4042 15.2105 78.4856 17.816 76.8284 19.3007C75.3341 20.5173 72.8675 20.1772 71.7994 18.544C70.4488 16.4749 70.8415 13.0983 73.1692 11.8962ZM87.2695 10.0857C89.4392 8.35673 92.6242 8.50999 94.7794 10.2007C94.1951 11.0005 93.5054 11.7237 92.8924 12.5044C92.0446 12.0542 91.1107 11.8962 90.1624 11.9153C89.9277 12.1548 89.4583 12.6337 89.2284 12.878C90.5551 14.6932 93.4384 14.4059 94.7315 16.3121C95.2584 17.4137 95.6463 18.7308 95.1243 19.909C94.3292 22.0068 91.8818 22.9647 89.7744 22.8785C87.7197 22.8833 86.029 21.5374 84.6305 20.1772C85.3872 19.4109 86.1392 18.6446 86.9007 17.883C87.6862 18.6781 88.5244 19.6264 89.7313 19.6887C90.6557 19.9377 92.4086 19.1618 91.6471 18.0363C89.9804 16.9778 87.6575 17.0161 86.4314 15.2919C85.4687 13.6395 85.7848 11.331 87.2695 10.0857ZM99.3055 10.1863C101.422 8.36152 104.775 8.42857 106.916 10.2007C106.265 10.967 105.637 11.7429 104.971 12.4949C103.736 11.7525 101.992 11.5561 101.26 13.0792C102.84 14.358 105.058 14.4873 106.523 15.9337C108.137 17.7633 107.591 20.9244 105.379 22.0212C102.538 23.7837 98.7403 22.7204 96.8006 20.1293C97.5526 19.3774 98.2997 18.635 99.0517 17.883C99.9377 18.7403 100.872 19.8324 102.237 19.7318C103.147 19.8036 103.856 19.1762 104.09 18.3332C102.586 17.0976 100.46 17.0928 98.975 15.8283C97.5717 14.2718 97.6675 11.5561 99.3055 10.1863ZM110.733 11.604C112.74 8.59141 117.429 7.94004 120.073 10.5072C120.058 10.1959 120.03 9.56368 120.015 9.25236C121.342 9.22842 122.664 9.23799 123.991 9.22842C123.995 13.6922 123.981 18.1608 124 22.6246C122.678 22.6438 121.361 22.6534 120.044 22.6486C120.044 22.3516 120.044 21.7482 120.044 21.4464C117.779 23.3909 114.177 23.5298 111.897 21.5614C109.239 19.0756 108.885 14.6549 110.738 11.604H110.733ZM115.274 11.9057C112.639 13.357 112.419 17.7633 114.895 19.4684C116.016 20.2538 117.577 20.1628 118.727 19.5019C120.533 18.1704 120.604 15.5362 119.776 13.6252C119.239 11.7812 116.893 11.1921 115.274 11.9057Z" fill="white"/>
</g>
</svg>
