<svg width="45" height="46" viewBox="0 0 45 46" fill="none" xmlns="http://www.w3.org/2000/svg">
<rect x="0.5" y="0.888916" width="44" height="44" rx="22" stroke="#344651"/>
<path fill-rule="evenodd" clip-rule="evenodd" d="M22.5 32.8889C28.0228 32.8889 32.5 28.4117 32.5 22.8889C32.5 17.3661 28.0228 12.8889 22.5 12.8889C16.9771 12.8889 12.5 17.3661 12.5 22.8889C12.5 28.4117 16.9771 32.8889 22.5 32.8889ZM25.5 20.8889C25.5 22.5458 24.1569 23.8889 22.5 23.8889C20.8431 23.8889 19.5 22.5458 19.5 20.8889C19.5 19.2321 20.8431 17.8889 22.5 17.8889C24.1569 17.8889 25.5 19.2321 25.5 20.8889ZM16.4993 27.8889C17.8676 26.0672 20.0461 24.8889 22.4998 24.8889C24.9535 24.8889 27.1321 26.0672 28.5004 27.8889C27.1321 29.7106 24.9535 30.8889 22.4998 30.8889C20.0461 30.8889 17.8676 29.7106 16.4993 27.8889Z" fill="#344651"/>
</svg>
