<svg width="239" height="20" viewBox="0 0 239 20" fill="none" xmlns="http://www.w3.org/2000/svg">
<g id="&#208;&#145;&#208;&#187;&#208;&#176;&#208;&#179;&#208;&#190;&#209;&#130;&#208;&#178;&#208;&#190;&#209;&#128;&#208;&#184;&#209;&#130;&#208;&#181;&#208;&#187;&#209;&#140;&#208;&#189;&#209;&#139;&#208;&#185; &#209;&#132;&#208;&#190;&#208;&#189;&#208;&#180;">
<path id="Vector" d="M238.91 18.357H237.853V15.0232H229.671V18.357H228.603V14.1287H229.935C230.172 13.6408 230.362 13.2207 230.504 12.8684C230.646 12.5092 230.792 12.0553 230.941 11.5064C231.097 10.9575 231.209 10.3375 231.276 9.64638C231.344 8.94844 231.378 8.15904 231.378 7.27815V4.99124H237.355V14.1287H238.91V18.357ZM236.287 14.1287V5.88568H232.435V7.96931C232.435 9.33807 232.33 10.4798 232.12 11.3946C231.917 12.3026 231.605 13.214 231.185 14.1287H236.287Z" fill="#344651"/>
<path id="Vector_2" d="M226.011 15.0232H224.954V10.2765H219.476V15.0232H218.419V4.99124H219.476V9.38211H224.954V4.99124H226.011V15.0232Z" fill="#344651"/>
<path id="Vector_3" d="M214.953 9.94115C214.953 10.9372 214.855 11.7605 214.658 12.411C214.462 13.0547 214.143 13.6002 213.703 14.0474C212.971 14.7792 212.043 15.1451 210.918 15.1451C209.786 15.1451 208.855 14.7792 208.123 14.0474C207.689 13.6138 207.371 13.0751 207.167 12.4313C206.971 11.7808 206.873 10.9711 206.873 10.0021C206.873 9.03316 206.971 8.22682 207.167 7.58309C207.371 6.93937 207.689 6.40068 208.123 5.96701C208.855 5.2352 209.786 4.86929 210.918 4.86929C212.205 4.86929 213.198 5.30974 213.896 6.19062C214.601 7.0715 214.953 8.32168 214.953 9.94115ZM213.886 10.053C213.886 9.14497 213.818 8.44026 213.682 7.93884C213.554 7.43063 213.323 7.00374 212.991 6.65817C212.442 6.08898 211.751 5.80439 210.918 5.80439C210.078 5.80439 209.383 6.08898 208.834 6.65817C208.509 6.99697 208.279 7.42047 208.143 7.92867C208.008 8.4301 207.94 9.12125 207.94 10.0021C207.94 10.8966 208.004 11.5945 208.133 12.0959C208.268 12.5906 208.502 13.0107 208.834 13.3563C209.383 13.9255 210.078 14.2101 210.918 14.2101C211.751 14.2101 212.442 13.9255 212.991 13.3563C213.31 13.0175 213.537 12.5974 213.672 12.0959C213.815 11.5945 213.886 10.9135 213.886 10.053Z" fill="#344651"/>
<path id="Vector_4" d="M202.827 6.2211C203.735 7.12231 204.189 8.38265 204.189 10.0021C204.189 11.6216 203.725 12.8853 202.797 13.7933C201.875 14.6945 200.618 15.1451 199.026 15.1451V19.8104H197.969V15.1451C196.376 15.1451 195.116 14.6945 194.188 13.7933C193.266 12.8853 192.805 11.6216 192.805 10.0021C192.805 8.38265 193.256 7.12231 194.157 6.2211C195.065 5.31988 196.336 4.86928 197.969 4.86928V0.203979H199.026V4.86928C200.659 4.86928 201.926 5.31988 202.827 6.2211ZM203.132 10.0225C203.132 9.54813 203.088 9.10769 203 8.70112C202.919 8.29456 202.776 7.91172 202.573 7.55259C202.37 7.19346 202.112 6.88854 201.801 6.63782C201.496 6.38033 201.106 6.17705 200.632 6.02798C200.157 5.87891 199.622 5.80437 199.026 5.80437V14.21C200.381 14.21 201.404 13.8306 202.095 13.0717C202.787 12.3127 203.132 11.2963 203.132 10.0225ZM197.969 14.21V5.80437C197.373 5.80437 196.837 5.87891 196.363 6.02798C195.889 6.17705 195.496 6.38033 195.184 6.63782C194.879 6.88854 194.625 7.19346 194.422 7.55259C194.218 7.91172 194.073 8.29456 193.985 8.70112C193.903 9.10769 193.863 9.54813 193.863 10.0225C193.863 11.2963 194.208 12.3127 194.899 13.0717C195.59 13.8306 196.614 14.21 197.969 14.21Z" fill="#344651"/>
<path id="Vector_5" d="M183.577 0.407272C183.184 2.14194 182.082 3.00927 180.273 3.00927C178.457 3.00927 177.353 2.14194 176.96 0.407272H177.935C178.24 1.51854 179.026 2.07418 180.294 2.07418C181.527 2.07418 182.296 1.51854 182.601 0.407272H183.577ZM184.227 15.0232H183.16V6.61751L177.397 15.0232H176.34V4.99126H177.397V13.3969L183.16 4.99126H184.227V15.0232Z" fill="#344651"/>
<path id="Vector_6" d="M168.381 9.92081C168.95 10.4561 169.235 11.171 169.235 12.0654C169.235 12.9599 168.95 13.6781 168.381 14.2202C167.819 14.7555 167.07 15.0232 166.135 15.0232H161.724V4.99124H162.781V9.10768H166.135C167.07 9.10768 167.819 9.37872 168.381 9.92081ZM168.178 12.0654C168.178 11.4081 167.985 10.8999 167.599 10.5408C167.219 10.1817 166.674 10.0021 165.962 10.0021H162.781V14.1287H165.962C166.68 14.1287 167.229 13.9525 167.609 13.6002C167.988 13.2411 168.178 12.7295 168.178 12.0654ZM170.963 4.99124H172.02V15.0232H170.963V4.99124Z" fill="#344651"/>
<path id="Vector_7" d="M157.689 15.0232H156.632V10.2765H151.153V15.0232H150.096V4.99124H151.153V9.38211H156.632V4.99124H157.689V15.0232Z" fill="#344651"/>
<path id="Vector_8" d="M146.386 9.92081C146.955 10.4561 147.24 11.171 147.24 12.0654C147.24 12.9599 146.955 13.6781 146.386 14.2202C145.824 14.7555 145.075 15.0232 144.14 15.0232H139.729V4.99124H140.786V9.10768H144.14C145.075 9.10768 145.824 9.37872 146.386 9.92081ZM146.183 12.0654C146.183 11.4081 145.99 10.8999 145.604 10.5408C145.224 10.1817 144.679 10.0021 143.967 10.0021H140.786V14.1287H143.967C144.686 14.1287 145.234 13.9525 145.614 13.6002C145.993 13.2411 146.183 12.7295 146.183 12.0654Z" fill="#344651"/>
<path id="Vector_9" d="M135.694 4.99124V15.0232H134.637V5.88568H130.571L130.429 10.8152C130.354 13.6205 129.307 15.0232 127.288 15.0232H126.617V14.1287H127.136C127.312 14.1287 127.471 14.1152 127.613 14.0881C127.762 14.0542 127.925 13.9966 128.101 13.9153C128.284 13.834 128.443 13.7052 128.579 13.529C128.714 13.3529 128.843 13.136 128.965 12.8785C129.094 12.6143 129.192 12.2755 129.26 11.8621C129.334 11.442 129.378 10.9609 129.392 10.4188L129.534 4.99124H135.694Z" fill="#344651"/>
<path id="Vector_10" d="M124.92 10.2359H117.947C117.968 10.7915 118.001 11.215 118.049 11.5064C118.096 11.7978 118.181 12.0824 118.303 12.3602C118.798 13.5799 119.773 14.1897 121.23 14.1897C121.766 14.1897 122.24 14.1084 122.653 13.9458C122.87 13.8577 123.067 13.7493 123.243 13.6205C123.419 13.4918 123.666 13.2783 123.985 12.9802L124.778 13.6104C124.418 13.9627 124.124 14.2202 123.893 14.3828C123.663 14.5455 123.395 14.6912 123.09 14.8199C122.589 15.0367 121.955 15.1451 121.19 15.1451C119.773 15.1451 118.699 14.7081 117.968 13.834C117.243 12.9531 116.88 11.6555 116.88 9.94115C116.88 8.36234 117.236 7.12232 117.947 6.22111C118.666 5.3199 119.651 4.86929 120.905 4.86929C122.152 4.86929 123.131 5.30635 123.842 6.18046C124.561 7.04779 124.92 8.24037 124.92 9.7582V10.2359ZM123.853 9.38213C123.819 8.7113 123.758 8.23359 123.67 7.949C123.473 7.27817 123.131 6.75303 122.643 6.37357C122.155 5.99411 121.576 5.80439 120.905 5.80439C120.322 5.80439 119.801 5.95685 119.34 6.26177C118.879 6.55991 118.533 6.96986 118.303 7.49162C118.1 7.93884 117.981 8.56901 117.947 9.38213H123.853Z" fill="#344651"/>
<path id="Vector_11" d="M115.62 4.99124V5.88568H112.205V15.0232H111.148V5.88568H107.519V4.99124H115.62Z" fill="#344651"/>
<path id="Vector_12" d="M105.293 15.0232H104.226V6.61749L98.4628 15.0232H97.4057V4.99124H98.4628V13.3969L104.226 4.99124H105.293V15.0232Z" fill="#344651"/>
<path id="Vector_13" d="M87.2214 6.2821C87.6347 5.76034 88.0446 5.39444 88.4512 5.18438C88.8645 4.97432 89.4202 4.86929 90.1181 4.86929C91.4123 4.86929 92.3745 5.29618 93.0047 6.14996C93.6349 6.99697 93.95 8.2878 93.95 10.0225C93.95 13.4376 92.6795 15.1451 90.1384 15.1451C89.4134 15.1451 88.8442 15.0367 88.4309 14.8199C88.0175 14.6031 87.6144 14.2405 87.2214 13.7323V19.8104H86.1643V4.99126H87.2214V6.2821ZM92.8827 10.0225C92.8827 8.55207 92.6591 7.48145 92.2119 6.81063C91.7647 6.1398 91.0464 5.80439 90.0571 5.80439C89.0746 5.80439 88.3563 6.1398 87.9024 6.81063C87.4484 7.48145 87.2214 8.54529 87.2214 10.0021C87.2214 11.4658 87.445 12.533 87.8922 13.2038C88.3462 13.8746 89.0678 14.2101 90.0571 14.2101C91.0397 14.2101 91.7545 13.8746 92.2017 13.2038C92.6557 12.533 92.8827 11.4725 92.8827 10.0225Z" fill="#344651"/>
<path id="Vector_14" d="M82.6984 9.94115C82.6984 10.9372 82.6001 11.7605 82.4036 12.411C82.2071 13.0547 81.8886 13.6002 81.4482 14.0474C80.7164 14.7792 79.7881 15.1451 78.6632 15.1451C77.5316 15.1451 76.5999 14.7792 75.8681 14.0474C75.4345 13.6138 75.116 13.0751 74.9127 12.4313C74.7162 11.7808 74.6179 10.9711 74.6179 10.0021C74.6179 9.03316 74.7162 8.22682 74.9127 7.58309C75.116 6.93937 75.4345 6.40068 75.8681 5.96701C76.5999 5.2352 77.5316 4.86929 78.6632 4.86929C79.9507 4.86929 80.9434 5.30974 81.6413 6.19062C82.346 7.0715 82.6984 8.32168 82.6984 9.94115ZM81.6311 10.053C81.6311 9.14497 81.5634 8.44026 81.4279 7.93884C81.2991 7.43063 81.0687 7.00374 80.7367 6.65817C80.1878 6.08898 79.4967 5.80439 78.6632 5.80439C77.823 5.80439 77.1285 6.08898 76.5796 6.65817C76.2544 6.99697 76.024 7.42047 75.8884 7.92867C75.7529 8.4301 75.6852 9.12125 75.6852 10.0021C75.6852 10.8966 75.7495 11.5945 75.8783 12.0959C76.0138 12.5906 76.2476 13.0107 76.5796 13.3563C77.1285 13.9255 77.823 14.2101 78.6632 14.2101C79.4967 14.2101 80.1878 13.9255 80.7367 13.3563C81.0552 13.0175 81.2822 12.5974 81.4177 12.0959C81.56 11.5945 81.6311 10.9135 81.6311 10.053Z" fill="#344651"/>
<path id="Vector_15" d="M71.6805 12.2992C71.6805 13.1462 71.4163 13.8136 70.8877 14.3015C70.366 14.7826 69.6443 15.0232 68.7228 15.0232H64.0677V4.99124H68.6212C69.4885 4.99124 70.1864 5.2284 70.7149 5.70272C71.2503 6.17027 71.5179 6.79367 71.5179 7.57291C71.5179 8.12854 71.3654 8.59948 71.0605 8.98571C70.7624 9.37195 70.3457 9.64976 69.8103 9.81916C70.3863 10.0021 70.8403 10.307 71.1723 10.7339C71.5111 11.1608 71.6805 11.6826 71.6805 12.2992ZM70.4507 7.63389C70.4507 7.07148 70.2711 6.64121 69.912 6.34306C69.5596 6.03814 69.0548 5.88568 68.3975 5.88568H65.1247V9.38211H68.3975C69.0616 9.38211 69.5698 9.22965 69.9222 8.92473C70.2745 8.61981 70.4507 8.18953 70.4507 7.63389ZM70.0543 13.6205C70.4337 13.2749 70.6235 12.8074 70.6235 12.2179C70.6235 11.6284 70.4337 11.1574 70.0543 10.8051C69.6748 10.4527 69.1565 10.2765 68.4992 10.2765H65.1247V14.1287H68.4992C69.1632 14.1287 69.6816 13.9593 70.0543 13.6205Z" fill="#344651"/>
<path id="Vector_16" d="M61.8316 4.99124V5.88568H58.4164V15.0232H57.3594V5.88568H53.7308V4.99124H61.8316Z" fill="#344651"/>
<path id="Vector_17" d="M52.4705 9.94115C52.4705 10.9372 52.3722 11.7605 52.1757 12.411C51.9792 13.0547 51.6607 13.6002 51.2203 14.0474C50.4885 14.7792 49.5602 15.1451 48.4354 15.1451C47.3038 15.1451 46.372 14.7792 45.6402 14.0474C45.2066 13.6138 44.8881 13.0751 44.6848 12.4313C44.4883 11.7808 44.3901 10.9711 44.3901 10.0021C44.3901 9.03316 44.4883 8.22682 44.6848 7.58309C44.8881 6.93937 45.2066 6.40068 45.6402 5.96701C46.372 5.2352 47.3038 4.86929 48.4354 4.86929C49.7228 4.86929 50.7155 5.30974 51.4134 6.19062C52.1181 7.0715 52.4705 8.32168 52.4705 9.94115ZM51.4033 10.053C51.4033 9.14497 51.3355 8.44026 51.2 7.93884C51.0712 7.43063 50.8408 7.00374 50.5088 6.65817C49.96 6.08898 49.2688 5.80439 48.4354 5.80439C47.5951 5.80439 46.9006 6.08898 46.3517 6.65817C46.0265 6.99697 45.7961 7.42047 45.6606 7.92867C45.525 8.4301 45.4573 9.12125 45.4573 10.0021C45.4573 10.8966 45.5217 11.5945 45.6504 12.0959C45.7859 12.5906 46.0197 13.0107 46.3517 13.3563C46.9006 13.9255 47.5951 14.2101 48.4354 14.2101C49.2688 14.2101 49.96 13.9255 50.5088 13.3563C50.8273 13.0175 51.0543 12.5974 51.1898 12.0959C51.3321 11.5945 51.4033 10.9135 51.4033 10.053Z" fill="#344651"/>
<path id="Vector_18" d="M37.946 5.88568V15.0232H36.889V4.99124H43.1297V5.88568H37.946Z" fill="#344651"/>
<path id="Vector_19" d="M32.8437 15.0232H31.7765V14.0271C31.3089 14.4608 30.9159 14.7386 30.5974 14.8606C30.1299 15.0503 29.4896 15.1451 28.6764 15.1451C26.2506 15.1451 25.0377 14.1829 25.0377 12.2586C25.0377 11.3641 25.346 10.6628 25.9626 10.1546C26.586 9.63962 27.4432 9.38213 28.5341 9.38213H31.7765V8.25392C31.7765 7.40014 31.5427 6.78013 31.0752 6.3939C30.6144 6.00089 29.8792 5.80439 28.8696 5.80439C28.1716 5.80439 27.6024 5.91619 27.162 6.1398C26.83 6.31598 26.5013 6.62767 26.1761 7.07489L25.4138 6.40406C25.6577 6.09914 25.8644 5.87215 26.0338 5.72307C26.2032 5.574 26.4099 5.43509 26.6538 5.30635C27.2298 5.01498 27.9819 4.86929 28.9102 4.86929C31.5325 4.86929 32.8437 5.96362 32.8437 8.15228V15.0232ZM31.7765 10.2359H28.6561C26.9485 10.2359 26.0948 10.9101 26.0948 12.2586C26.0948 12.9429 26.3116 13.441 26.7453 13.7527C27.1789 14.0576 27.8701 14.2101 28.8187 14.2101C29.869 14.2101 30.6245 14 31.0853 13.5799C31.5461 13.1598 31.7765 12.4754 31.7765 11.5267V10.2359Z" fill="#344651"/>
<path id="Vector_20" d="M21.8564 4.99124V15.0232H20.7993V5.88568H16.7337L16.5914 10.8152C16.5169 13.6205 15.47 15.0232 13.4507 15.0232H12.7799V14.1287H13.2982C13.4744 14.1287 13.6336 14.1152 13.7759 14.0881C13.925 14.0542 14.0876 13.9966 14.2638 13.9153C14.4468 13.834 14.606 13.7052 14.7415 13.529C14.8771 13.3529 15.0058 13.136 15.1278 12.8785C15.2565 12.6143 15.3548 12.2755 15.4225 11.8621C15.4971 11.442 15.5411 10.9609 15.5547 10.4188L15.697 4.99124H21.8564Z" fill="#344651"/>
<path id="Vector_21" d="M9.57816 7.65423C10.3913 8.43347 10.7978 9.46682 10.7978 10.7543C10.7978 12.0417 10.3913 13.0751 9.57816 13.8543C8.76504 14.6335 7.68087 15.0232 6.32567 15.0232H0.847244V0.203979H9.88308V1.20006H1.97545V6.48536H6.32567C7.68087 6.48536 8.76504 6.87498 9.57816 7.65423ZM8.76504 13.1733C9.37488 12.6041 9.6798 11.7978 9.6798 10.7543C9.6798 9.71075 9.37488 8.90779 8.76504 8.34538C8.16197 7.7762 7.30819 7.4916 6.2037 7.4916H1.97545V14.0271H6.2037C7.30819 14.0271 8.16197 13.7425 8.76504 13.1733Z" fill="#344651"/>
</g>
</svg>
