<svg width="240" height="28" viewBox="0 0 240 28" fill="none" xmlns="http://www.w3.org/2000/svg">
<g id="&#208;&#156;&#208;&#176;&#208;&#186;&#209;&#129;&#208;&#184;&#208;&#188; &#208;&#148;&#208;&#184;&#208;&#178;&#208;&#189;&#208;&#184;&#209;&#135;">
<path id="Vector" d="M233.247 10.8188H237.423L234.144 19.8525L239.496 16.8825L239.063 18.0582L230.555 22.7916H228.915L230.431 18.646C229.998 18.5016 229.555 18.3572 229.101 18.2128C228.668 18.0478 228.235 17.8725 227.802 17.6869C226.399 17.0269 225.43 16.1297 224.893 14.9953C224.378 13.8403 224.347 12.4482 224.801 10.8188H229.039C228.792 11.4375 228.647 12.0666 228.606 12.706C228.585 13.3453 228.647 13.9744 228.792 14.5932C228.936 15.1913 229.173 15.7688 229.503 16.3257C229.854 16.8619 230.277 17.3466 230.772 17.7797L233.247 10.8188Z" fill="#011B56"/>
<path id="Vector_2" d="M207.62 22.7916H205.981L210.312 10.8188H214.489L211.209 19.8525L216.561 16.8825L218.758 10.8188H222.934L219.655 19.8525L225.007 16.8825L224.574 18.0582L216.066 22.7916H214.427L216.128 18.0582L207.62 22.7916Z" fill="#011B56"/>
<path id="Vector_3" d="M195.735 17.0063L193.662 22.7916H189.455L193.786 10.8188H197.962L196.044 16.14L200.437 15.9853L202.232 10.8188H206.408L203.129 19.8525L208.481 16.8825L208.048 18.0582L199.54 22.7916H197.901L200.128 16.8516L195.735 17.0063Z" fill="#011B56"/>
<path id="Vector_4" d="M181.785 4.44565L186.642 1.75409L187.137 1.47565C187.756 1.12502 188.24 0.887837 188.591 0.764087C188.942 0.640336 189.272 0.578461 189.581 0.578461C190.365 0.578461 191.014 0.856898 191.53 1.41377C192.046 1.95002 192.303 2.62034 192.303 3.42471C192.303 4.53846 191.798 5.49752 190.788 6.3019C190.499 6.52877 190.158 6.77627 189.767 7.0444C189.375 7.2919 188.859 7.59096 188.22 7.94159L183.796 10.3856L182.558 13.7888L188.962 10.231C189.643 11.5097 189.983 12.7885 189.983 14.0672C189.983 15.3047 189.674 16.501 189.055 17.656C188.457 18.7903 187.601 19.7907 186.487 20.6569C185.869 21.1313 185.188 21.5335 184.445 21.8635C183.723 22.1935 182.96 22.4306 182.156 22.575C181.764 22.6575 181.29 22.7194 180.733 22.7607C180.176 22.7813 179.464 22.7916 178.598 22.7916H178.196H175.102L181.785 4.44565ZM188.251 6.98252C189.261 6.40502 189.963 5.95127 190.354 5.62127C190.705 5.3119 190.973 4.96127 191.159 4.5694C191.365 4.17752 191.468 3.79596 191.468 3.42471C191.468 2.84721 191.283 2.37284 190.911 2.00159C190.561 1.60971 190.117 1.41377 189.581 1.41377C189.169 1.41377 188.612 1.60971 187.91 2.00159L187.446 2.24909L186.58 2.71315L184.229 9.21002L188.251 6.98252ZM179.99 21.9253C180.815 21.9253 181.589 21.781 182.311 21.4922C183.033 21.2035 183.662 20.8013 184.198 20.2857C184.734 19.77 185.157 19.1822 185.466 18.5222C185.776 17.8416 185.93 17.1094 185.93 16.3257C185.93 15.8306 185.858 15.3563 185.714 14.9025C185.59 14.4281 185.363 13.9125 185.033 13.3556L182.125 14.9644L179.588 21.9253H179.99Z" fill="#011B56"/>
<path id="Vector_5" d="M160.459 22.7916H158.819L163.15 10.8188H167.327L164.048 19.8525L169.4 16.8825L171.596 10.8188H175.773L172.494 19.8525L177.846 16.8825L177.413 18.0582L168.905 22.7916H167.265L168.967 18.0582L160.459 22.7916Z" fill="#011B56"/>
<path id="Vector_6" d="M143.58 8.96252L136.496 12.8916C135.897 11.7572 135.598 10.6228 135.598 9.48846C135.598 8.37471 135.897 7.2919 136.496 6.24002C137.094 5.16752 137.919 4.2394 138.971 3.45565C139.899 2.77502 140.961 2.2594 142.157 1.90877C143.353 1.53752 144.663 1.3519 146.086 1.3519C147.881 1.3519 149.551 1.66127 151.098 2.28002C152.666 2.89877 154.027 3.75471 155.182 4.84783C156.337 5.92034 157.244 7.18877 157.904 8.65315C158.564 10.0969 158.894 11.6541 158.894 13.3247C158.894 14.7478 158.626 16.0988 158.09 17.3775C157.574 18.6356 156.822 19.7597 155.832 20.7497C154.903 21.6778 153.883 22.3585 152.769 22.7916C151.676 23.2041 150.407 23.4103 148.963 23.4103C147.582 23.4103 146.303 23.2247 145.127 22.8535C144.859 22.771 144.539 22.6575 144.168 22.5131C143.817 22.3688 143.343 22.1728 142.745 21.9253L142.157 21.6469L131.917 27.3394C131.009 26.7 130.308 25.9781 129.813 25.1738C129.297 24.39 129.04 23.6063 129.04 22.8225C129.04 22.1831 129.174 21.5953 129.442 21.0591C129.71 20.5022 130.081 20.0278 130.556 19.636C131.009 19.2235 131.556 18.9038 132.195 18.6769C132.835 18.45 133.526 18.3366 134.268 18.3366C135.072 18.3366 135.918 18.4397 136.805 18.646C137.692 18.8522 138.651 19.1822 139.682 19.636L143.58 8.96252ZM143.271 21.2138C143.993 21.5231 144.591 21.7397 145.065 21.8635C145.54 21.9666 146.055 22.0181 146.612 22.0181C147.726 22.0181 148.778 21.75 149.768 21.2138C150.778 20.6569 151.655 19.9144 152.397 18.9863C153.14 18.0375 153.728 16.9444 154.161 15.7069C154.615 14.4694 154.842 13.1597 154.842 11.7778C154.842 10.3753 154.625 9.09659 154.192 7.94159C153.759 6.76596 153.15 5.75534 152.367 4.90971C151.583 4.06409 150.644 3.4144 149.551 2.96065C148.479 2.48627 147.293 2.24909 145.993 2.24909C145.065 2.24909 144.199 2.38315 143.395 2.65127C142.59 2.89877 141.889 3.2494 141.291 3.70315C140.713 4.13627 140.26 4.66221 139.93 5.28096C139.6 5.87909 139.435 6.52877 139.435 7.23002C139.435 7.64252 139.486 8.07565 139.589 8.5294C139.713 8.96252 139.909 9.42659 140.177 9.92159L149.242 4.87877L143.271 21.2138ZM141.198 21.2447L140.858 21.09C140.198 20.7806 139.61 20.5331 139.094 20.3475C138.599 20.1413 138.156 19.9866 137.764 19.8835C137.372 19.7597 137.011 19.6772 136.681 19.636C136.351 19.5741 136.032 19.5431 135.722 19.5431C134.938 19.5431 134.278 19.7597 133.742 20.1928C133.227 20.6053 132.969 21.1416 132.969 21.8016C132.969 22.6885 133.629 23.6578 134.949 24.7097L141.198 21.2447Z" fill="#011B56"/>
<path id="Vector_7" d="M107.372 22.7916H105.732L109.104 13.5103L108.331 13.9434C107.609 14.3559 106.939 14.7375 106.32 15.0881C105.722 15.4181 105.196 15.7791 104.742 16.1709C104.309 16.5628 103.958 17.0269 103.69 17.5631C103.422 18.0788 103.267 18.7284 103.226 19.5122C103.226 19.6359 103.237 19.8216 103.257 20.0691C103.278 20.2959 103.309 20.5435 103.35 20.8116C103.391 21.0591 103.443 21.3066 103.505 21.5541C103.587 21.8016 103.67 22.0078 103.752 22.1728L100.349 24.06C100.246 23.7919 100.184 23.4722 100.163 23.1009C100.122 22.7503 100.102 22.5131 100.102 22.3894C100.102 20.2031 100.927 18.1613 102.577 16.2638C102.927 15.8719 103.381 15.48 103.938 15.0881C104.515 14.6963 105.268 14.2528 106.196 13.7578C107.124 13.2628 108.279 12.6853 109.661 12.0253C111.043 11.3447 112.724 10.5197 114.704 9.55032L112.848 14.5931C113.776 14.0363 115.024 13.3763 116.591 12.6131C118.179 11.8294 120.262 10.8084 122.841 9.55032L119.097 19.8525L124.449 16.8825L124.016 18.0581L115.508 22.7916H113.869L117.241 13.5103L116.467 13.9434C115.869 14.2734 115.312 14.5828 114.797 14.8716C114.302 15.1397 113.848 15.4284 113.436 15.7378C113.023 16.0266 112.662 16.3463 112.353 16.6969C112.043 17.0475 111.806 17.46 111.641 17.9344L110.527 21.0281L107.372 22.7916Z" fill="#011B56"/>
<path id="Vector_8" d="M84.7466 22.7916H83.1069L87.4382 10.8188H91.6147L88.3353 19.8525L93.6875 16.8825L95.8841 10.8188H100.061L96.7813 19.8525L102.133 16.8825L101.7 18.0582L93.1925 22.7916H91.5529L93.2544 18.0582L84.7466 22.7916Z" fill="#011B56"/>
<path id="Vector_9" d="M85.8454 16.4494L85.4122 17.6559L75.0172 23.4103C74.2541 22.6059 73.6663 21.75 73.2538 20.8425C72.8619 19.9763 72.666 19.0275 72.666 17.9963C72.666 16.0575 73.4704 14.3147 75.0791 12.7678C76.7291 11.2003 78.4101 10.4166 80.1219 10.4166C81.0913 10.4166 81.8957 10.6847 82.5351 11.2209C83.1126 11.7572 83.4838 12.4997 83.6488 13.4484L79.5651 15.7069L79.1629 14.9953L80.4004 14.3147C80.3385 13.4278 80.1632 12.7781 79.8744 12.3656C79.6063 11.9738 79.2041 11.7778 78.6679 11.7778C78.1935 11.7778 77.7913 11.9325 77.4613 12.2419C77.1107 12.5925 76.8322 13.0256 76.626 13.5413C76.4404 14.1394 76.3476 14.7684 76.3476 15.4284C76.3476 16.3978 76.5229 17.3466 76.8735 18.2747C77.2035 19.0997 77.7088 19.8731 78.3894 20.595L85.8454 16.4494Z" fill="#011B56"/>
<path id="Vector_10" d="M61.8799 10.3547H66.0565L64.7262 14.2219L71.8418 10.2619L72.2749 11.0044L67.7581 13.4794L67.8818 13.696C68.1706 14.2528 68.4387 14.8097 68.6862 15.3666C68.9337 15.9028 69.1502 16.4391 69.3359 16.9753C69.5009 17.5322 69.6452 18.0788 69.769 18.615C69.8927 19.1513 69.9856 19.6875 70.0474 20.2238L73.1412 18.5222L72.7699 19.6669L67.1084 22.7916H66.304C66.1596 19.7597 65.4996 17.295 64.324 15.3975V15.3666L61.6015 22.7916H57.4559L61.8799 10.3547Z" fill="#011B56"/>
<path id="Vector_11" d="M50.8497 18.615L53.3557 11.6541C52.4069 11.6541 51.5304 11.7985 50.726 12.0872C49.9216 12.3553 49.241 12.7369 48.6841 13.2319C48.1272 13.7063 47.7044 14.3044 47.4157 15.0263C47.1063 15.7069 46.9516 16.4597 46.9516 17.2847C46.9516 18.2747 47.2404 19.275 47.8179 20.2857L50.8497 18.615ZM54.5622 19.8525L59.8216 16.9444L59.3885 18.12L50.9735 22.7916H49.3029L50.3857 19.7907L43.8888 23.4104C43.2494 22.0491 42.9297 20.7497 42.9297 19.5122C42.9297 18.2953 43.2597 17.0785 43.9197 15.8616C44.5591 14.686 45.4357 13.6753 46.5494 12.8297C47.065 12.4378 47.7044 12.0666 48.4675 11.716C49.0863 11.4272 49.8288 11.2003 50.695 11.0353C51.4788 10.891 52.3244 10.8188 53.2319 10.8188H54.0054H57.8416L54.5622 19.8525Z" fill="#011B56"/>
<path id="Vector_12" d="M25.7829 18.5222L40.8185 0.825958H43.7576L36.7038 19.8525L41.8704 17.0063L41.4682 18.1819L33.1151 22.7916H31.4754L37.8794 5.40471L23.6172 22.7916H20.0594L26.4635 5.40471C26.0922 5.56971 25.6179 5.96158 25.0404 6.58033C24.4835 7.17846 23.8544 7.91065 23.1532 8.7769C22.4519 9.64315 21.6785 10.6022 20.8329 11.6541C20.0079 12.706 19.1416 13.7681 18.2341 14.8406C17.3266 15.9131 16.3882 16.9547 15.4188 17.9653C14.4494 18.976 13.4697 19.8731 12.4797 20.6569C11.5104 21.4406 10.541 22.0697 9.57162 22.5441C8.60224 23.0185 7.66381 23.2556 6.75631 23.2556C4.21943 23.2556 2.24974 21.9047 0.847244 19.2028L8.61256 14.8716L9.01474 15.5831L5.79724 17.3775C6.00349 17.8313 6.24068 18.2644 6.50881 18.6769C6.77693 19.0894 7.07599 19.44 7.40599 19.7288C7.73599 20.0175 8.08662 20.2341 8.45787 20.3785C8.82912 20.5022 9.21068 20.5022 9.60256 20.3785C10.7369 20.0485 11.8507 19.471 12.9438 18.646C14.0576 17.821 15.161 16.8516 16.2541 15.7378C17.3472 14.6035 18.4301 13.3763 19.5026 12.0563C20.5957 10.7363 21.6888 9.40596 22.7819 8.06533C23.8957 6.72471 25.0197 5.42533 26.1541 4.16721C27.2885 2.90908 28.4538 1.79533 29.6501 0.825958H32.3416L25.7829 18.5222Z" fill="#011B56"/>
</g>
</svg>
