<svg width="690" height="660" viewBox="0 0 690 660" fill="none" xmlns="http://www.w3.org/2000/svg">
<path d="M690 0.443909H0V659.334H690V0.443909Z" fill="#F9F9F9"/>
<path d="M576.156 659.334H545.633C536.652 645.481 529.843 630.718 542.874 628.312C560.806 625.025 570.609 643.632 576.156 659.334Z" fill="#B8DAF2"/>
<path d="M673.361 580.619C669.37 588.69 662.502 594.149 654.695 598.258C645.215 603.248 634.738 606.359 625.933 612.581C619.535 617.101 614.105 622.882 609.849 629.427C608.793 638.555 607.384 647.624 605.799 656.693C620.034 645.012 637.555 637.997 654.607 631.335C655.517 631.012 659.303 630.454 658.833 632.45C656.603 642.077 652.553 651.234 646.917 659.334H599.401C600.428 653.758 601.309 648.123 602.101 642.517C601.221 642.546 600.428 642.37 600.076 641.842C586.928 621.62 567.616 609.352 551.533 592.095C545.663 585.756 541.26 578.095 538.766 569.819C537.885 566.913 537.239 563.861 537.856 560.867C539.323 553.589 548.069 549.715 555.436 550.977C568.584 553.237 577.331 565.035 583.934 575.63C587.603 581.5 590.89 587.663 593.795 593.973C598.286 603.717 601.778 613.872 604.244 624.32C605.946 607.914 606.973 591.479 607.766 574.955C607.912 571.961 608.088 568.938 608.265 565.974C607.678 565.974 607.12 565.915 606.768 565.681C596.114 558.578 586.781 549.656 579.326 539.237C572.899 530.227 567.851 520.219 564.534 509.682C563.272 505.661 560.66 500.408 565.796 498.354C569.553 496.857 574.219 497.532 577.888 498.97C588.248 503.079 592.621 513.733 595.967 523.535C599.313 533.367 603.627 542.524 609.292 551.065C609.585 547.103 609.879 543.111 610.319 539.149C611.082 532.223 603.393 520.424 603.481 511.825C603.569 501.729 604.889 491.075 605.036 480.773C605.124 475.901 605.212 470.971 606.592 466.275C607.736 462.43 609.703 458.879 611.728 455.416C614.487 450.72 617.539 445.936 622.147 442.972C626.725 439.978 633.241 439.332 637.467 442.795C647.24 450.896 648.825 471.998 644.482 483.063C637.995 499.586 619.476 515.963 617.04 533.895C616.835 535.216 616.688 536.537 616.541 537.858C617.832 526.03 643.484 509.418 652.993 505.045C656.28 503.548 659.831 502.345 663.412 502.697C667.022 503.02 670.602 505.309 671.512 508.802C672.128 511.15 671.483 513.615 670.602 515.875C667.433 524.093 661.211 531.049 653.374 535.069C646.536 538.591 639.756 541.321 633.241 545.488C630.306 547.396 615.074 555.232 614.868 558.197C614.311 566.855 613.87 575.483 613.459 584.083C613.107 591.479 612.667 598.845 612.109 606.212C616.336 599.755 622 594.091 627.547 588.955C639.991 577.42 653.638 567.295 668.137 558.49C669.105 557.903 672.04 557.169 672.892 558.431C677.529 565.27 676.883 573.429 673.361 580.619Z" fill="#B8DAF2"/>
<path d="M380.102 648.24C381.482 651.879 382.656 655.577 383.683 659.334H355.508C354.715 658.16 353.952 656.957 353.219 655.753C349.726 650.118 347.584 643.662 346.938 637.058C346.732 634.739 346.703 632.303 347.613 630.161C349.843 624.907 357.034 623.323 362.376 625.377C371.943 629.075 376.757 639.289 380.102 648.24Z" fill="#B8DAF2"/>
<path d="M449.776 648.768C451.273 652.32 451.244 655.959 450.099 659.334H420.809C428.968 654.961 437.479 651.234 446.196 648.093C447.017 647.8 449.307 647.682 449.776 648.768Z" fill="#B8DAF2"/>
<path d="M456.264 611.143C456.381 613.021 455.5 614.782 454.503 616.367C450.863 622.061 445.111 626.346 438.625 628.195C432.931 629.809 427.413 630.865 421.866 633.008C419.342 634.006 406.663 637.616 406.076 639.817C404.345 646.244 402.701 652.672 401.087 659.129C401.058 659.187 401.058 659.275 401.028 659.334H396.156C396.831 656.693 397.506 654.022 398.181 651.351C398.739 649.121 399.355 646.89 399.913 644.659C399.473 644.601 399.062 644.454 398.856 644.219C391.871 637.263 386.207 629.104 382.157 620.124C378.664 612.375 376.375 604.04 375.465 595.617C375.142 592.388 373.968 588.015 378.136 587.252C381.218 586.695 384.622 587.927 387.175 589.571C394.366 594.237 396.039 602.925 397.066 610.82C398.123 618.744 399.972 626.287 402.936 633.595C403.787 630.631 404.609 627.666 405.519 624.761C406.575 621.474 405.695 617.335 405.02 614.048C404.169 610.027 403.758 606.329 403.816 602.103C403.934 593.181 405.255 584.229 407.72 575.63C410.273 566.679 414.734 557.404 423.128 553.413C427.648 551.27 437.245 552.121 440.591 556.23C446.725 563.832 444.729 579.974 439.769 587.663C432.403 599.139 415.938 608.677 411.389 621.796C411.036 622.794 410.714 623.763 410.42 624.731C413.208 616.015 435.044 607.357 442.88 605.537C445.58 604.891 448.427 604.51 451.098 605.302C453.739 606.124 456.117 608.384 456.264 611.143Z" fill="#B8DAF2"/>
<path d="M141.7 622.882C136.857 630.953 132.777 639.494 129.549 648.328C128.903 650.148 128.228 652.026 126.878 653.406C124.178 656.223 121.918 657.661 119.864 659.334H69.9408C68.444 658.835 66.9765 658.248 65.4797 657.544C56.5576 653.259 51.0693 644.043 43.0863 638.203C39.1535 635.356 34.6043 633.272 31.3172 629.691C28.9693 627.138 27.3844 623.91 26.7975 620.476C26.0931 616.279 27.4725 611.143 31.464 609.616C32.9314 609.059 34.5457 609.059 36.1305 609.147C45.669 609.734 53.2411 614.459 61.9285 617.394C66.6243 618.979 86.3177 623.792 87.8438 629.134C85.5546 621.209 83.4121 613.226 81.5924 605.214C77.1607 599.785 71.7898 595.147 65.6265 591.743C57.2032 587.047 47.5474 585.286 38.6252 581.764C31.2879 578.859 24.6256 574.632 20.2819 567.853C16.2904 561.601 15.4393 553.471 18.3742 547.924C20.5461 543.786 24.8898 541.086 31.6107 541.732C36.8642 542.201 41.7362 544.667 46.1092 547.602C52.6835 552.004 58.4653 557.58 63.1024 564.008C65.0688 566.737 66.8298 569.614 68.6201 572.49C70.3223 575.307 76.8085 581.764 77.3368 584.728C76.1335 578.242 75.0182 571.697 74.0203 565.152C72.817 557.522 71.5844 549.861 70.2343 542.201C69.7941 539.589 55.4423 534.072 52.6248 532.663C46.4321 529.552 40.122 527.791 33.6945 525.296C26.3279 522.479 20.1058 516.873 16.4665 509.888C15.4687 507.951 14.6469 505.808 14.9697 503.666C15.4687 500.467 18.4623 498.06 21.6026 497.414C24.7724 496.769 28.0595 497.502 31.1411 498.53C40.034 501.494 64.4818 513.821 66.8004 524.24C66.5363 523.066 66.2721 521.921 65.9787 520.747C58.2305 508.714 50.9519 496.475 41.9123 485.499C31.552 472.908 16.8774 435.81 45.9331 436.339C53.2118 436.456 60.5197 439.45 65.3917 444.85C69.3245 449.223 71.4963 454.858 73.6095 460.376C76.3096 467.449 79.0097 474.639 79.8315 482.182C80.6533 490.077 79.3326 497.943 77.4248 505.573C76.427 509.624 71.6137 520.894 72.4648 524.797C73.2279 528.29 73.8736 531.782 74.5486 535.304C78.7456 527.145 81.7098 518.575 83.7643 509.477C85.7894 500.437 88.6362 490.517 97.4704 485.851C100.611 484.207 104.69 483.151 108.212 484.119C112.996 485.44 111.176 490.4 110.443 494.098C108.506 503.813 104.954 513.234 100.112 521.862C94.4767 531.87 86.9927 540.734 78.1879 548.101C77.8944 548.335 77.4249 548.453 76.8966 548.482C77.3075 551.153 77.777 553.794 78.1879 556.436C80.4772 571.11 83.0012 585.668 86.1122 600.107C87.3155 590.569 89.4287 581.177 92.481 572.049C94.4474 566.15 96.7953 560.339 99.5248 554.733C101.755 550.096 104.074 544.96 108.212 541.702C114.464 536.801 126.732 538.063 127.465 547.455C128.404 559.253 121.801 571.404 115.432 580.796C107.566 592.418 97.8813 602.719 91.5125 615.34C91.2483 615.839 90.5733 616.073 89.7809 616.132C91.2777 622.09 92.8919 628.018 94.7115 633.918C94.7115 634.006 94.7996 634.123 94.8289 634.211C100.405 638.878 106.363 645.775 110.061 653.347C109.034 651.263 112.086 640.844 112.556 638.349C113.877 630.807 116.313 623.88 119.247 616.807C120.451 613.96 121.654 611.055 123.738 608.765C126.145 606.153 129.461 604.598 132.777 603.277C137.972 601.164 143.373 599.491 148.831 598.229C149.624 602.25 149.389 606.505 148.156 610.409C146.748 614.899 144.106 618.862 141.7 622.882Z" fill="#B8DAF2"/>
<path d="M345.586 75.9888C346.026 98.9693 343.473 121.862 340.714 144.666C341.213 144.813 341.565 145.106 341.565 145.517C341.272 164.8 340.215 184.141 342.945 203.306C344.383 213.431 347.787 225.142 343.913 235.091C342.358 239.053 338.572 242.634 334.345 242.105C335.549 247.3 335.872 252.671 335.314 257.954C334.58 264.587 331.293 267.727 324.572 266.641C325.394 271.954 324.22 276.914 319.759 280.465C316.061 283.429 310.25 283.899 307.168 279.731C303.382 274.595 299.919 269.224 296.808 263.648C296.69 265.673 296.573 267.698 296.456 269.752C296.103 275.476 293.11 280.553 286.418 279.35C280.372 278.264 275.618 271.983 272.624 267.082C268.603 260.478 265.727 253.17 262.557 246.185C260.151 240.902 257.656 235.678 255.337 230.366C254.457 228.311 254.163 220.328 250.641 225.347C249.878 226.404 248.587 227.49 247.09 228.282C244.273 229.808 240.721 230.395 238.667 228.282C236.994 226.55 236.231 222.265 235.204 220.035C234.323 218.098 233.413 216.219 232.445 214.341C231.946 213.402 231.476 212.492 230.948 211.553C228.512 207.121 224.932 202.954 222.877 198.404C218.739 189.277 217.594 177.86 217.359 167.94C217.095 156.582 216.039 145.605 217.095 134.159C217.976 124.239 223.552 115.287 228.307 106.806C231.242 101.552 234.294 96.3865 237.405 91.2798C238.931 88.8144 240.369 86.2611 241.983 83.8544C243.011 82.2989 244.566 81.1249 244.742 79.1879C245.681 69.1211 243.891 58.9369 240.692 49.3397C237.493 39.7719 232.885 30.703 228.101 21.8101C225.577 17.2023 222.701 12.7706 220.089 8.22145C218.651 5.69742 217.154 3.17339 216.244 0.443909H321.168C322.899 4.87564 324.191 9.60087 325.717 14.062C328.505 22.2504 331.499 30.3508 334.316 38.5099C338.454 50.6017 343.561 62.7523 345.968 75.3138C346.026 75.6073 345.88 75.8127 345.586 75.9888Z" fill="#FDB082"/>
<path d="M288.033 66.7145C280.696 63.2513 272.184 62.5469 264.348 64.5426C262.176 65.1003 260.034 65.8633 258.009 66.8612C257.569 67.0667 257.627 67.4776 258.009 67.7123C258.478 67.9765 259.183 67.9471 259.652 67.7123C266.109 64.6013 273.652 63.8383 280.608 65.5405C282.603 66.0394 284.54 66.7145 286.389 67.5949C286.859 67.8297 287.563 67.8591 288.033 67.5949C288.444 67.3895 288.473 66.9786 288.033 66.7438V66.7145Z" fill="#ED7D6B"/>
<path d="M247.325 72.4669C246.21 74.8442 245.095 77.2215 243.979 79.5988C243.598 80.3912 245.887 80.626 246.21 79.9216C247.325 77.5443 248.44 75.1671 249.556 72.7898C249.937 71.9973 247.648 71.7625 247.325 72.4669Z" fill="#ED7D6B"/>
<path d="M252.107 172.988C252.254 170.259 252.254 167.5 252.577 164.77C252.753 163.303 253.134 161.894 253.78 160.544C254.426 159.223 255.248 157.961 256.011 156.699C257.654 153.999 259.298 151.27 260.941 148.569C261.381 147.865 259.122 147.572 258.711 148.247C257.243 150.653 255.776 153.089 254.308 155.496C253.369 157.051 252.342 158.578 251.549 160.221C251.256 159.957 250.992 159.663 250.698 159.399L248.82 157.521C248.644 157.345 248.35 157.286 248.116 157.257C247.851 157.227 247.499 157.227 247.206 157.316C246.854 157.433 246.413 157.756 246.795 158.137C247.441 158.783 248.086 159.429 248.732 160.045C249.348 160.661 249.935 161.278 250.698 161.689C250.757 161.689 250.816 161.747 250.874 161.747C250.786 161.982 250.728 162.217 250.64 162.452C249.935 165.005 249.994 167.764 249.877 170.376C249.73 173.223 249.583 176.07 249.466 178.946C249.407 180.325 249.319 181.734 249.26 183.113C249.202 184.111 249.172 185.08 249.348 186.048C247.294 186.87 245.269 187.751 243.273 188.778C242.862 188.983 242.862 189.424 243.273 189.629C243.743 189.864 244.447 189.864 244.917 189.629C246.472 188.837 248.116 188.074 249.73 187.398C250.141 188.367 250.728 189.247 251.227 190.157C251.755 191.155 252.254 192.182 252.665 193.21C254.426 197.465 255.247 202.102 255.159 206.71C255.071 211.876 253.78 216.983 251.256 221.502C250.845 222.265 253.105 222.53 253.487 221.825C257.977 213.754 258.564 203.893 255.717 195.176C255.013 193.004 254.074 190.891 252.929 188.925C252.283 187.809 251.667 186.723 251.549 185.403C251.432 184.111 251.549 182.791 251.638 181.499C251.784 178.652 251.931 175.806 252.048 172.929L252.107 172.988Z" fill="#ED7D6B"/>
<path d="M297.658 263.296C296.631 258.336 294.635 253.64 292.522 249.032C290.38 244.336 288.266 239.669 286.417 234.856C282.719 225.2 279.873 215.251 277.906 205.096C277.378 202.367 276.996 199.637 276.439 196.937C275.94 194.472 275.235 192.036 273.885 189.923C274.678 189.834 275.499 189.717 276.292 189.629C276.644 189.57 277.29 189.365 277.114 188.895C276.938 188.455 276.057 188.426 275.676 188.484C270.099 189.247 264.494 189.6 258.888 189.57C258.536 189.57 257.743 189.688 257.714 190.157C257.714 190.656 258.565 190.744 258.888 190.744C263.143 190.744 267.399 190.568 271.625 190.157C274.179 194.09 274.472 199.021 275.294 203.511C276.233 208.559 277.378 213.549 278.728 218.479C281.457 228.399 285.067 237.997 289.352 247.33C291.73 252.495 294.166 257.719 295.34 263.296C295.516 264.147 297.834 264.029 297.658 263.296Z" fill="#ED7D6B"/>
<path d="M324.952 265.291C323.367 260.214 320.579 255.577 318.202 250.822C315.795 246.068 313.535 241.284 311.392 236.412C307.166 226.756 303.498 216.836 300.68 206.681C299.066 200.958 297.745 195.147 296.689 189.277C296.542 188.426 294.223 188.543 294.37 189.277C296.219 199.696 299.007 209.939 302.529 219.917C306.051 229.926 310.277 239.699 315.002 249.208C316.353 251.908 317.732 254.55 319.111 257.25C320.491 259.95 321.811 262.679 322.721 265.585C322.956 266.319 325.245 266.172 324.952 265.262V265.291Z" fill="#ED7D6B"/>
<path d="M335.696 240.491C331.147 229.104 327.302 217.423 324.22 205.566C323.34 202.191 322.547 198.786 321.784 195.382C321.608 194.53 319.289 194.648 319.466 195.382C322.136 207.473 325.57 219.36 329.738 231.011C330.912 234.299 332.144 237.556 333.436 240.785C333.729 241.519 336.019 241.313 335.666 240.462L335.696 240.491Z" fill="#ED7D6B"/>
<path d="M247.09 228.282C244.272 229.808 240.721 230.395 238.666 228.282C236.994 226.55 236.201 222.265 235.174 220.006C234.293 218.098 233.384 216.19 232.415 214.312C233.002 213.813 233.706 213.461 234.528 213.255C236.994 212.668 239.547 213.637 241.22 215.486C242.687 217.071 243.685 219.096 244.595 221.062C245.534 223.117 246.297 225.259 246.855 227.431C246.914 227.695 247.002 227.989 247.06 228.253L247.09 228.282Z" fill="#FFD2BB"/>
<path d="M322.781 229.515C322.223 230.63 320.99 231.246 319.963 231.863C318.701 232.596 317.41 233.242 316.06 233.8C315.619 233.976 315.678 234.445 316.06 234.651C316.558 234.915 317.204 234.856 317.703 234.651C319.112 234.064 320.521 233.359 321.841 232.567C323.015 231.863 324.395 231.129 325.04 229.838C325.422 229.045 323.133 228.81 322.81 229.515H322.781Z" fill="#ED7D6B"/>
<path d="M306.843 244.189C306.403 244.072 305.611 244.043 305.259 244.395C304.378 245.275 303.439 246.068 302.412 246.743C301.883 247.095 301.355 247.388 300.798 247.682C300.533 247.829 300.24 247.946 299.946 248.093C299.8 248.151 299.682 248.21 299.536 248.269C299.359 248.328 299.271 248.386 299.154 248.416C298.831 248.533 298.332 248.856 298.743 249.237C299.095 249.56 299.888 249.619 300.328 249.443C302.911 248.445 305.288 246.977 307.254 245.011C307.607 244.659 307.225 244.307 306.843 244.189Z" fill="#ED7D6B"/>
<path d="M296.777 214.664C296.337 214.458 295.574 214.37 295.134 214.664C293.167 215.926 291.113 217.071 289 218.068C288.589 218.274 288.589 218.714 289 218.92C289.499 219.154 290.144 219.154 290.643 218.92C292.756 217.922 294.811 216.806 296.777 215.515C296.924 215.427 297.129 215.31 297.129 215.104C297.129 214.928 296.953 214.752 296.777 214.693V214.664Z" fill="#ED7D6B"/>
<path d="M276.087 221.532C275.705 221.179 274.942 221.15 274.502 221.326C272.565 222.001 270.657 222.676 268.72 223.351C268.368 223.469 267.899 223.792 268.309 224.173C268.691 224.525 269.454 224.555 269.894 224.379C271.831 223.704 273.739 223.028 275.676 222.353C276.028 222.236 276.498 221.913 276.087 221.532Z" fill="#ED7D6B"/>
<path d="M281.779 246.743C281.28 246.478 280.634 246.537 280.135 246.743C277.993 247.652 275.791 248.122 273.502 248.298C273.179 248.298 272.475 248.592 272.68 249.032C272.915 249.501 273.708 249.472 274.119 249.443C276.76 249.237 279.343 248.592 281.779 247.564C282.219 247.388 282.16 246.919 281.779 246.713V246.743Z" fill="#ED7D6B"/>
<path d="M472.902 134.159C473.959 145.605 472.902 156.582 472.638 167.94C472.403 177.86 471.259 189.277 467.12 198.404C465.066 202.954 461.485 207.121 459.049 211.553C458.521 212.492 458.052 213.402 457.553 214.341C456.584 216.219 455.674 218.098 454.794 220.035C453.767 222.265 453.003 226.55 451.331 228.282C449.276 230.395 445.725 229.808 442.907 228.282C441.411 227.49 440.119 226.404 439.356 225.347C435.834 220.328 435.541 228.311 434.66 230.366C432.342 235.678 429.847 240.902 427.44 246.185C424.271 253.17 421.394 260.478 417.374 267.082C414.38 271.983 409.625 278.264 403.579 279.35C396.888 280.553 393.894 275.476 393.542 269.752C393.425 267.698 393.307 265.673 393.19 263.648C390.079 269.224 386.616 274.595 382.83 279.731C379.748 283.899 373.937 283.429 370.239 280.465C365.748 276.914 364.604 271.954 365.425 266.641C358.704 267.727 355.417 264.587 354.684 257.954C354.126 252.671 354.449 247.3 355.652 242.105C351.426 242.634 347.64 239.053 346.084 235.091C342.21 225.142 345.615 213.431 347.053 203.306C349.782 184.141 348.726 164.8 348.432 145.517C348.432 145.106 348.784 144.813 349.283 144.666C346.525 121.862 343.971 98.9693 344.411 75.9888C344.147 75.8127 343.971 75.6073 344.03 75.3138C346.437 62.7523 351.543 50.6017 355.682 38.5099C358.499 30.3508 361.493 22.2504 364.281 14.062C365.337 11.0096 366.335 7.92796 367.304 4.84629C367.773 3.40818 368.067 1.91137 368.448 0.443909H474.018C473.607 1.58853 472.99 2.6451 472.433 3.61363C471.171 5.78547 470.026 8.04536 468.735 10.2466C466.445 14.0913 464.039 17.8774 461.896 21.8101C457.112 30.703 452.505 39.7719 449.305 49.3397C446.106 58.9369 444.316 69.1211 445.255 79.1879C445.431 81.1249 446.987 82.2989 448.014 83.8544C449.628 86.2611 451.066 88.8144 452.593 91.2798C455.704 96.3865 458.756 101.552 461.691 106.806C466.445 115.287 472.022 124.239 472.902 134.159Z" fill="#FDB082"/>
<path d="M401.965 66.7145C409.302 63.2513 417.813 62.5469 425.65 64.5426C427.821 65.1003 429.964 65.8633 431.989 66.8612C432.429 67.0667 432.371 67.4776 431.989 67.7123C431.519 67.9765 430.815 67.9471 430.345 67.7123C423.889 64.6013 416.346 63.8383 409.39 65.5405C407.394 66.0394 405.457 66.7145 403.608 67.5949C403.139 67.8297 402.434 67.8591 401.965 67.5949C401.554 67.3895 401.525 66.9786 401.965 66.7438V66.7145Z" fill="#ED7D6B"/>
<path d="M442.672 72.4669C443.787 74.8442 444.902 77.2215 446.018 79.5988C446.399 80.3912 444.11 80.626 443.787 79.9216C442.672 77.5443 441.556 75.167 440.441 72.7898C440.06 71.9973 442.349 71.7625 442.672 72.4669Z" fill="#ED7D6B"/>
<path d="M437.888 172.988C437.741 170.259 437.741 167.5 437.418 164.77C437.242 163.303 436.861 161.894 436.215 160.544C435.569 159.223 434.747 157.961 433.984 156.699C432.341 153.999 430.697 151.27 429.054 148.569C428.613 147.865 430.873 147.572 431.284 148.247C432.752 150.653 434.219 153.089 435.687 155.496C436.626 157.051 437.653 158.578 438.445 160.221C438.739 159.957 439.003 159.663 439.297 159.399L441.175 157.521C441.351 157.345 441.644 157.286 441.879 157.257C442.143 157.227 442.496 157.227 442.789 157.316C443.141 157.433 443.582 157.756 443.2 158.137C442.554 158.783 441.909 159.429 441.263 160.045C440.647 160.661 440.06 161.278 439.297 161.689C439.238 161.689 439.179 161.747 439.12 161.747C439.208 161.982 439.267 162.217 439.355 162.452C440.06 165.005 440.001 167.764 440.118 170.376C440.265 173.223 440.412 176.07 440.529 178.946C440.588 180.325 440.676 181.734 440.735 183.113C440.793 184.111 440.823 185.08 440.647 186.048C442.701 186.87 444.726 187.751 446.722 188.778C447.133 188.983 447.133 189.424 446.722 189.629C446.252 189.864 445.548 189.864 445.078 189.629C443.523 188.837 441.879 188.074 440.265 187.398C439.854 188.367 439.267 189.247 438.768 190.157C438.24 191.155 437.741 192.182 437.33 193.21C435.569 197.465 434.747 202.102 434.835 206.71C434.924 211.876 436.215 216.983 438.739 221.502C439.15 222.265 436.89 222.53 436.508 221.825C432.018 213.754 431.431 203.893 434.278 195.176C434.982 193.004 435.921 190.891 437.066 188.925C437.712 187.809 438.328 186.723 438.445 185.403C438.563 184.111 438.445 182.791 438.357 181.499C438.211 178.652 438.064 175.806 437.946 172.929L437.888 172.988Z" fill="#ED7D6B"/>
<path d="M392.337 263.296C393.364 258.336 395.36 253.64 397.473 249.032C399.615 244.336 401.728 239.669 403.577 234.856C407.275 225.2 410.122 215.251 412.089 205.096C412.617 202.367 412.999 199.637 413.556 196.937C414.055 194.472 414.76 192.036 416.11 189.923C415.317 189.834 414.495 189.717 413.703 189.629C413.351 189.57 412.705 189.365 412.881 188.895C413.057 188.455 413.938 188.426 414.319 188.484C419.896 189.247 425.501 189.6 431.107 189.57C431.459 189.57 432.252 189.688 432.281 190.157C432.281 190.656 431.43 190.744 431.107 190.744C426.851 190.744 422.596 190.568 418.369 190.157C415.816 194.09 415.523 199.021 414.701 203.511C413.762 208.559 412.617 213.549 411.267 218.479C408.537 228.399 404.928 237.997 400.643 247.33C398.265 252.495 395.829 257.719 394.655 263.296C394.479 264.147 392.161 264.029 392.337 263.296Z" fill="#ED7D6B"/>
<path d="M365.042 265.291C366.627 260.214 369.415 255.577 371.792 250.822C374.199 246.068 376.459 241.284 378.601 236.412C382.828 226.756 386.496 216.836 389.343 206.681C390.957 200.958 392.278 195.147 393.335 189.277C393.481 188.426 395.8 188.543 395.653 189.277C393.804 199.696 391.016 209.939 387.494 219.917C383.972 229.926 379.717 239.699 375.021 249.208C373.671 251.908 372.291 254.55 370.912 257.25C369.532 259.95 368.212 262.679 367.302 265.585C367.067 266.319 364.778 266.172 365.071 265.262L365.042 265.291Z" fill="#ED7D6B"/>
<path d="M354.301 240.491C358.85 229.104 362.695 217.423 365.777 205.566C366.657 202.191 367.45 198.786 368.213 195.382C368.389 194.53 370.708 194.648 370.531 195.382C367.861 207.473 364.427 219.36 360.259 231.011C359.085 234.299 357.853 237.556 356.561 240.785C356.268 241.519 353.978 241.313 354.331 240.462L354.301 240.491Z" fill="#ED7D6B"/>
<path d="M442.906 228.282C445.724 229.808 449.275 230.395 451.329 228.282C453.002 226.55 453.795 222.265 454.822 220.006C455.702 218.098 456.612 216.19 457.581 214.312C456.994 213.813 456.289 213.461 455.468 213.255C453.002 212.668 450.449 213.637 448.776 215.486C447.309 217.071 446.311 219.096 445.401 221.062C444.462 223.117 443.699 225.259 443.141 227.431C443.082 227.695 442.994 227.989 442.936 228.253L442.906 228.282Z" fill="#FFD2BB"/>
<path d="M367.216 229.515C367.773 230.63 369.006 231.246 370.033 231.863C371.295 232.596 372.587 233.242 373.937 233.8C374.377 233.976 374.318 234.445 373.937 234.651C373.438 234.915 372.792 234.856 372.293 234.651C370.884 234.064 369.476 233.359 368.155 232.567C366.981 231.863 365.602 231.129 364.956 229.838C364.574 229.045 366.864 228.81 367.186 229.515H367.216Z" fill="#ED7D6B"/>
<path d="M383.153 244.189C383.593 244.072 384.385 244.043 384.738 244.395C385.618 245.275 386.557 246.068 387.585 246.743C388.113 247.095 388.641 247.388 389.199 247.682C389.463 247.829 389.756 247.946 390.05 248.093C390.197 248.151 390.314 248.21 390.461 248.269C390.637 248.328 390.725 248.386 390.842 248.416C391.165 248.533 391.664 248.856 391.253 249.237C390.901 249.56 390.109 249.619 389.668 249.443C387.086 248.445 384.708 246.977 382.742 245.011C382.39 244.659 382.771 244.307 383.153 244.189Z" fill="#ED7D6B"/>
<path d="M393.218 214.664C393.659 214.458 394.422 214.37 394.862 214.664C396.828 215.926 398.883 217.071 400.996 218.068C401.407 218.274 401.407 218.714 400.996 218.92C400.497 219.154 399.851 219.154 399.352 218.92C397.239 217.922 395.185 216.806 393.218 215.515C393.072 215.427 392.866 215.31 392.866 215.104C392.866 214.928 393.042 214.752 393.218 214.693V214.664Z" fill="#ED7D6B"/>
<path d="M413.909 221.532C414.291 221.179 415.054 221.15 415.494 221.326C417.431 222.001 419.339 222.676 421.276 223.351C421.628 223.469 422.097 223.792 421.687 224.173C421.305 224.525 420.542 224.555 420.102 224.379C418.165 223.704 416.257 223.028 414.32 222.353C413.968 222.236 413.498 221.913 413.909 221.532Z" fill="#ED7D6B"/>
<path d="M408.217 246.743C408.716 246.478 409.361 246.537 409.86 246.743C412.003 247.652 414.204 248.122 416.493 248.298C416.816 248.298 417.52 248.592 417.315 249.032C417.08 249.501 416.288 249.472 415.877 249.443C413.235 249.237 410.653 248.592 408.217 247.564C407.777 247.388 407.835 246.919 408.217 246.713V246.743Z" fill="#ED7D6B"/>
<path d="M394.071 97.9714C391.371 97.4725 388.612 97.4138 385.883 97.4725C378.105 97.6192 370.21 98.6464 363.166 101.963C354.185 106.219 348.609 113.937 344.999 122.83C341.36 113.937 335.813 106.189 326.832 101.963C319.788 98.6464 311.893 97.6192 304.116 97.4725C301.386 97.4138 298.627 97.4725 295.927 97.9714C277.408 101.435 268.75 122.478 271.098 139.413C271.949 145.517 272.272 151.005 274.356 156.963C278.846 169.701 286.359 181.235 295.223 191.331C306.669 204.362 320.404 215.192 334.257 225.67C334.991 226.228 335.725 226.785 336.488 227.313C339.159 229.221 341.947 230.982 344.999 231.892C348.051 230.982 350.84 229.221 353.51 227.313C354.273 226.756 355.007 226.228 355.741 225.67C369.594 215.192 383.3 204.392 394.775 191.331C403.668 181.235 411.152 169.701 415.643 156.963C417.726 151.005 418.049 145.547 418.9 139.413C421.248 122.478 412.59 101.435 394.071 97.9714Z" fill="#FD3552"/>
<path d="M405.166 125.853C405.459 122.419 403.962 118.604 400.587 117.401C399.325 116.96 398.063 116.902 396.918 117.136C396.009 117.048 395.069 117.225 394.218 117.694C393.074 118.105 392.105 118.956 391.547 120.365C390.726 122.39 391.254 125.237 392.017 127.233C392.134 127.555 392.311 127.849 392.487 128.142C392.721 128.788 393.015 129.346 393.338 129.815C395.334 132.721 400.235 133.777 403.111 131.576C404.901 130.197 405.43 128.054 405.166 125.883V125.853Z" fill="white"/>
<path d="M442.91 517.636C444.025 523.359 446.578 529.112 448.016 534.864C454.121 559.165 462.133 583.085 478.686 602.543C483.94 608.707 487.814 613.285 488.372 621.62C489.223 634.152 489.076 646.743 487.961 659.246H566.088C565.824 652.32 564.944 645.276 564.533 638.496C564.034 630.366 564.474 622.442 564.21 614.254C564.122 611.113 565.531 608.237 565.883 605.185C566.264 601.986 566.646 598.845 567.262 595.676C571.988 571.404 576.507 547.543 574.218 522.684C574.218 522.479 574.189 522.273 574.159 522.068C573.25 508.332 573.836 494.391 573.631 480.597C573.543 474.669 573.426 468.711 573.25 462.782C573.103 457.617 573.543 452.07 570.931 447.403C569.023 444.028 565.208 441.827 561.451 443.617C558.604 444.967 558.017 448.636 557.43 451.395C556.256 457 555.816 462.694 555.317 468.388C554.877 473.465 554.936 478.425 554.261 483.473C553.527 488.962 553.762 494.89 550.768 499.792C546.219 485.117 547.569 469.386 547.246 454.036C547.129 447.873 546.718 441.739 546.043 435.605C545.544 431.026 545.104 424.599 542.11 420.901C540.584 419.023 538.324 417.702 535.888 417.555C533.481 417.408 530.957 418.553 529.637 420.578C528.14 422.926 528.287 426.066 528.022 428.737C527.7 431.966 527.964 435.253 527.905 438.481C527.846 442.561 527.817 446.64 527.758 450.749C527.67 457.617 527.612 464.485 527.523 471.323C527.435 477.956 527.817 484.413 526.496 490.958C525.528 488.815 525.352 486.408 525.205 484.06C524.383 472.086 523.561 460.082 523.913 448.049C524.06 442.561 524.559 437.19 524.383 431.76C524.178 426.066 524.178 420.373 524.119 414.679C524.09 411.539 523.972 407.899 521.301 405.757C520.01 404.73 518.366 404.172 516.723 404.172C516.635 404.172 516.576 404.172 516.488 404.172C513.729 404.025 511.176 404.964 509.298 406.989C507.067 409.337 506.597 411.891 506.157 415.031C504.308 427.798 502.459 440.624 502.107 453.537C501.784 466.245 502.899 478.983 502.577 491.691C499.818 480.539 497.44 469.298 495.357 457.998C494.329 452.393 494.036 446.259 492.51 440.8C491.189 436.133 490.573 431.173 489.047 426.507C487.843 422.867 485.143 420.285 480.976 421.371C478.246 422.075 476.074 424.276 474.871 426.8C472.699 431.349 473.55 435.869 473.785 440.653C474.079 446.523 474.577 452.393 475.135 458.263C476.016 467.801 476.72 477.486 477.982 486.966C479.244 496.505 480.183 506.102 480.036 515.728C479.919 522.831 479.391 529.933 478.657 537.006C475.076 531.459 472.376 525.502 470.322 519.221C468.091 512.265 465.538 505.603 461.488 499.469C458.377 494.744 454.297 490.077 448.574 488.58C444.348 487.494 435.925 488.698 433.87 493.159C432.168 496.827 435.748 499.175 437.363 501.964C440.122 506.777 441.882 512.236 442.939 517.695L442.91 517.636Z" fill="#FDB082"/>
<path d="M487.754 548.746C484.173 546.193 481.326 542.759 479.507 538.738C479.184 538.034 476.895 538.239 477.276 539.061C479.154 543.17 482.089 546.721 485.758 549.362C486.198 549.685 486.844 549.744 487.343 549.568C487.636 549.48 488.223 549.069 487.754 548.746Z" fill="#ED7D6B"/>
<path d="M532.044 578.976C530.576 574.984 528.551 571.228 526.438 567.559C524.207 563.714 521.918 559.899 519.658 556.054C519.247 555.379 516.987 555.643 517.428 556.377C519.688 560.222 521.977 564.037 524.207 567.882C526.35 571.55 528.375 575.307 529.813 579.299C530.077 580.032 532.366 579.856 532.044 578.976Z" fill="#ED7D6B"/>
<path d="M551.093 531.929C547.189 531.929 543.344 530.696 540.116 528.524C539.646 528.202 539.059 528.143 538.531 528.319C538.238 528.407 537.651 528.818 538.12 529.141C541.965 531.724 546.455 533.103 551.093 533.132C551.445 533.132 552.237 533.015 552.267 532.545C552.267 532.046 551.415 531.958 551.093 531.958V531.929Z" fill="#ED7D6B"/>
<path d="M562.157 611.025C560.396 616.279 557.49 621.092 553.587 625.025C552.853 625.788 555.054 626.169 555.582 625.612C559.545 621.591 562.597 616.69 564.387 611.348C564.681 610.467 562.391 610.291 562.157 611.025Z" fill="#ED7D6B"/>
<path d="M560.042 506.542C557.459 504.664 554.994 502.638 552.675 500.437C552.294 500.085 551.56 500.085 551.09 500.232C550.738 500.349 550.298 500.672 550.679 501.054C552.998 503.255 555.463 505.28 558.046 507.158C558.486 507.481 559.132 507.54 559.631 507.364C559.924 507.276 560.511 506.865 560.042 506.542Z" fill="#ED7D6B"/>
<path d="M507.185 491.691C505.6 491.779 504.015 492.044 502.518 492.572C502.342 492.63 502.078 492.748 501.99 492.924C501.902 493.1 501.99 493.276 502.107 493.394C502.518 493.716 503.223 493.775 503.692 493.599C504.015 493.482 504.338 493.394 504.661 493.306C504.837 493.247 504.983 493.217 505.16 493.188C505.16 493.188 505.189 493.188 505.218 493.188C505.277 493.188 505.365 493.159 505.424 493.159C505.747 493.1 506.069 493.041 506.422 493.012C506.568 493.012 506.715 492.983 506.891 492.953C506.891 492.953 507.097 492.953 507.126 492.953C507.126 492.953 507.185 492.953 507.214 492.953C507.478 492.953 507.772 492.924 508.036 492.777C508.183 492.719 508.388 492.542 508.388 492.366C508.359 491.897 507.596 491.75 507.214 491.779L507.185 491.691Z" fill="#ED7D6B"/>
<path d="M466.977 512.236C466.683 512.148 466.39 512.118 466.067 512.177C465.832 512.206 465.538 512.265 465.362 512.441C464.042 513.732 462.692 514.994 461.371 516.286C460.989 516.638 461.43 516.99 461.782 517.108C462.075 517.196 462.369 517.225 462.692 517.166C462.926 517.137 463.22 517.078 463.396 516.902L467.387 513.057C467.769 512.705 467.329 512.353 466.977 512.236Z" fill="#ED7D6B"/>
<path d="M473.14 536.889C473.111 536.419 472.348 536.273 471.966 536.302C471.702 536.302 471.379 536.331 471.145 536.478C470.998 536.566 470.793 536.713 470.793 536.889C470.822 537.388 470.792 537.858 470.675 538.356C470.499 538.943 470.235 539.501 469.853 540C469.736 540.147 469.853 540.352 469.971 540.47C470.147 540.616 470.44 540.704 470.675 540.734C471.174 540.792 471.79 540.734 472.113 540.323C472.847 539.384 473.228 538.122 473.14 536.918V536.889Z" fill="#ED7D6B"/>
<path d="M142.931 530.873C145.719 537.241 148.536 543.669 150.15 550.448C152.733 561.396 150.561 573.37 148.419 584.259C146.012 596.409 142.314 608.266 138.939 620.182C135.388 632.773 131.69 645.335 128.843 658.101C128.755 658.483 128.696 658.835 128.608 659.217H192.765C194.233 642.781 195.113 626.287 197.872 609.998C199.076 602.866 200.631 595.822 202.216 588.749C203.595 582.468 205.004 576.188 206.384 569.907C207.528 564.742 208.702 559.517 210.551 554.528C212.224 549.979 215.042 546.281 217.155 541.996C221.117 533.925 224.257 525.384 226.253 516.638C228.366 507.452 229.628 498.06 231.8 488.874C233.15 483.151 234.706 477.516 236.408 471.851C237.905 466.862 240.135 460.258 238.286 455.122C236.731 450.779 231.389 449.898 227.456 451.307C222.672 453.038 219.473 458.145 217.331 462.46C212.928 471.294 211.696 481.184 209.025 490.605C207.117 488.14 205.415 485.528 204.006 482.74C202.862 480.509 201.394 478.279 200.66 475.901C195.172 458.145 195.172 439.303 194.204 420.901C193.998 416.909 193.264 409.778 188.187 409.543C183.462 409.337 180.85 414.004 179.529 417.995C178.56 420.93 178.15 424.012 177.856 427.094C176.565 440.536 176.888 454.154 178.854 467.508C178.942 468.183 179.03 468.887 178.737 469.474C177.416 472.086 174.51 466.95 174.099 465.923C173.336 463.986 172.661 461.99 172.045 459.994C170.049 453.391 168.083 446.875 167.232 439.949C166.351 432.787 166.087 425.538 164.796 418.436C164.502 416.91 164.179 415.354 163.563 413.916C162.008 410.277 157.194 406.256 153.349 409.367C151.677 410.746 150.649 412.801 150.18 414.914C149.71 417.027 149.74 419.228 149.769 421.4C149.974 431.261 150.356 441.064 152.029 450.779C153.496 459.29 155.345 467.742 157.605 476.078C156.989 475.99 156.607 475.373 156.314 474.816C155.081 472.262 154.054 469.591 153.261 466.862C152.528 464.309 151.999 461.696 151.471 459.114C149.622 451.747 148.742 444.263 147.333 436.867C146.57 432.905 145.631 428.825 143.107 425.656C142.138 424.452 140.905 423.396 139.409 423.132C137.295 422.75 135.182 424.041 133.979 425.832C132.805 427.622 132.394 429.794 132.13 431.907C131.25 438.921 131.69 446.083 133.333 452.95C134.126 456.237 134.889 459.525 135.74 462.812L137.178 468.241C137.56 469.679 138.469 471.616 138.469 473.084C139.702 477.721 140.847 482.652 142.842 486.995C141.287 485.352 139.79 483.65 138.528 481.742C133.539 474.199 133.245 465.365 130.369 457.059C129.841 455.562 129.224 453.978 127.874 453.126C126.583 452.305 124.91 452.363 123.384 452.569C122.474 452.686 121.564 452.862 120.801 453.361C119.48 454.212 118.894 455.856 118.6 457.411C116.663 467.214 120.273 477.252 123.501 486.35C128.931 501.582 136.386 515.993 142.901 530.814L142.931 530.873Z" fill="#FDB082"/>
<path d="M212.019 598.229C211.109 611.554 209.818 624.819 208.174 638.056C207.176 646.156 207.206 653.787 202.363 659.334H115.753C115.548 658.776 115.372 658.16 115.284 657.514C114.697 653.318 116.516 650.647 117.602 646.861C118.982 642.047 119.657 636.853 120.655 631.922C122.768 621.679 124.852 611.407 126.965 601.164C127.61 597.994 128.286 594.795 129.371 591.802C129.929 590.275 130.604 588.808 131.426 587.428C134.713 582.058 139.468 580.502 145.161 580.297C145.572 580.297 145.954 580.297 146.365 580.297C156.901 580.238 167.115 584.405 177.563 586.078C185.751 587.37 194.086 587.106 202.363 587.575C205.621 587.751 209.377 588.338 211.109 591.303C211.197 591.479 211.314 591.655 211.373 591.831C212.254 593.768 212.136 596.086 211.989 598.229H212.019Z" fill="#FFCF56"/>
<path d="M208.938 496.593C208.41 496.446 207.794 496.505 207.353 496.798C198.607 502.903 192.679 512.177 188.628 521.892C187.396 524.827 186.339 527.82 185.341 530.843C185.048 531.724 187.337 531.9 187.572 531.166C190.888 520.982 195.349 510.856 202.833 503.02C204.8 500.936 206.972 499.058 209.349 497.414C209.789 497.092 209.232 496.681 208.938 496.593Z" fill="#ED7D6B"/>
<path d="M144.603 490.429C144.31 490.4 143.987 490.4 143.694 490.488C143.488 490.547 143.253 490.635 143.165 490.84C142.754 491.603 142.285 492.366 141.786 493.071C141.258 493.804 140.817 494.391 140.201 495.037C140.084 495.184 139.996 495.301 140.084 495.507C140.172 495.683 140.436 495.8 140.612 495.859C140.905 495.947 141.228 495.976 141.522 495.918C141.757 495.888 142.05 495.829 142.226 495.653C143.459 494.303 144.545 492.807 145.425 491.163C145.66 490.723 144.926 490.459 144.603 490.429Z" fill="#ED7D6B"/>
<path d="M177.151 471.059C176.858 470.472 175.684 470.53 175.214 470.795C173.042 472.027 170.9 473.319 168.787 474.639C168.64 474.727 168.435 474.845 168.435 475.05C168.435 475.256 168.611 475.402 168.787 475.461C169.227 475.696 169.99 475.725 170.43 475.461C172.191 474.346 173.982 473.289 175.772 472.262C176.183 472.291 176.623 472.233 176.946 471.969C177.239 471.734 177.327 471.382 177.151 471.059Z" fill="#ED7D6B"/>
<path d="M209.494 550.947C207.205 554.645 204.681 558.197 201.893 561.572C201.57 561.983 202.48 562.276 202.715 562.306C203.213 562.364 203.8 562.306 204.153 561.895C206.941 558.52 209.465 554.998 211.754 551.27C212.194 550.566 209.934 550.272 209.524 550.947H209.494Z" fill="#ED7D6B"/>
<path d="M219.796 477.75L219.092 477.046C219.092 477.046 218.916 476.899 218.798 476.87C218.681 476.811 218.534 476.782 218.417 476.753C218.27 476.753 218.094 476.753 217.947 476.753C217.8 476.753 217.654 476.753 217.507 476.811L217.272 476.899C217.272 476.899 217.037 477.046 216.979 477.163C216.979 477.222 216.979 477.281 216.949 477.31C216.949 477.428 217.008 477.545 217.096 477.604C217.331 477.839 217.566 478.073 217.8 478.308C217.888 478.396 217.976 478.455 218.094 478.484C218.211 478.543 218.358 478.572 218.475 478.602C218.622 478.602 218.798 478.602 218.945 478.602C219.092 478.602 219.238 478.602 219.385 478.543C219.473 478.514 219.532 478.484 219.62 478.455C219.737 478.396 219.855 478.308 219.913 478.191C219.913 478.132 219.914 478.073 219.943 478.044C219.943 477.927 219.884 477.809 219.796 477.75Z" fill="#ED7D6B"/>
<path d="M248.645 429.882C249.584 434.255 251.404 438.1 252.549 442.443C255.425 453.214 258.272 463.986 261.148 474.757C262.146 478.543 263.173 482.329 264.494 485.998C268.192 496.182 275.089 504.928 281.281 513.733C283.923 517.46 286.3 521.393 288.942 525.091C291.26 528.348 291.436 531.43 291.7 535.48C292.346 544.96 291.583 554.469 290.849 563.92C288.384 595.617 285.919 627.373 280.9 658.776C280.9 658.923 280.871 659.07 280.841 659.217H381.069C378.486 628.165 376.725 597.026 375.757 565.886C375.669 562.716 375.58 559.517 376.021 556.377C376.813 550.625 379.543 545.841 381.597 540.528C383.593 535.451 385.148 530.051 386.909 524.856C391.693 510.71 396.741 496.593 400.733 482.211C403.315 472.908 405.781 463.252 406.837 453.684C406.896 453.185 406.955 452.686 407.102 452.217C407.248 451.776 407.512 451.365 407.747 450.955C411.152 445.231 413.001 438.804 414.938 432.465C416.992 425.773 418.929 419.081 420.925 412.36C423.126 404.935 425.768 397.422 426.589 389.673C427.176 384.273 426.912 377.758 421.776 375.351C422.07 374.793 421.541 374.118 420.162 374.148C414.82 374.206 411.944 378.374 409.772 382.747C406.867 388.558 404.284 394.545 401.672 400.503C399.412 405.727 397.123 410.952 394.687 416.088C393.425 418.7 392.133 421.312 390.783 423.895C389.815 425.714 389.639 427.71 388.377 429.412C388.23 429.618 388.025 429.852 387.79 429.94C387.35 430.117 386.821 429.852 386.469 429.53C385.412 428.473 385.266 426.829 385.412 425.333C385.647 423.014 385.706 420.754 386.088 418.494C388.612 402.969 391.165 387.413 393.689 371.888C395.068 363.376 396.741 354.396 395.098 345.796C394.569 343.096 393.454 340.455 391.458 338.547C388.846 336.052 383.769 336.052 380.981 338.312C379.983 339.105 379.278 340.249 378.721 341.394C376.285 346.178 376.167 351.343 375.316 356.509C374.436 361.88 373.849 367.309 372.587 372.621C369.3 386.68 365.455 400.621 360.847 414.385C361.669 400.151 363.694 385.946 367.509 372.181C368.126 369.951 368.801 367.72 369.417 365.46C372.558 354.161 375.492 342.216 376.167 330.476C376.373 326.925 376.314 322.933 373.761 320.145C372.029 318.237 369.711 317.386 367.275 317.474C364.516 317.21 361.287 318.413 359.732 320.732C358.499 322.522 357.971 324.694 357.384 326.807C356.768 328.95 356.034 331.063 355.271 333.176C353.216 338.694 350.78 344.094 348.755 349.641C346.76 355.129 345.527 360.823 344.236 366.517C342.797 372.856 341.418 379.225 340.127 385.594C339.481 388.793 338.835 391.963 338.19 395.162C337.632 397.95 336.253 401.53 336.399 404.348C335.812 391.61 336.106 378.843 336.399 366.106C336.487 361.351 336.605 356.626 336.634 351.872C336.634 349.377 336.634 346.853 336.634 344.358C336.634 342.538 336.164 340.983 335.959 339.193C335.783 337.49 335.401 335.788 334.873 334.145C333.963 331.386 331.703 329.185 328.534 329.977C320.081 332.149 317.322 340.719 316.236 348.408C314.74 358.857 313.507 369.334 312.274 379.841C311.071 390.143 309.985 400.474 308.87 410.805C308.635 412.947 308.4 415.09 308.136 417.262C304.526 428.913 304.291 440.77 299.654 452.099C298.832 454.066 297.805 456.179 295.839 457.089C292.669 458.527 289.118 456.003 286.946 453.273C276.028 439.684 277.818 412.448 259.71 405.639C255.572 404.084 250.377 402.91 245.916 404.113C238.549 406.05 241.132 411.949 243.979 416.763C246.356 420.813 247.677 425.391 248.675 429.97L248.645 429.882Z" fill="#FDB082"/>
<path d="M389.873 659.334H274.531C274.384 657.015 274.531 654.286 274.795 651.468C274.883 650.705 274.971 649.913 275.059 649.15C275.822 643.045 277.055 636.941 277.26 634.182C277.466 631.276 277.642 628.4 277.847 625.524C277.906 624.731 277.965 623.968 278.023 623.205C278.493 616.103 278.992 609 279.491 601.898C279.55 601.134 279.608 600.342 279.638 599.579C279.814 597.084 279.99 594.59 280.136 592.095C280.136 592.007 280.136 591.919 280.136 591.86C280.723 584.464 284.187 582.821 289.646 582.146C290.379 582.058 291.172 581.969 291.994 581.911C292.874 581.823 293.813 581.764 294.782 581.705C302.295 581.118 309.867 581.148 317.41 581.236C318.173 581.236 318.966 581.236 319.729 581.265C320.257 581.265 320.785 581.265 321.313 581.265C328.798 581.382 336.282 581.5 343.766 581.588C344.529 581.588 345.321 581.588 346.084 581.617C354.566 581.735 363.019 581.852 371.501 581.999C372.264 581.999 373.056 581.999 373.849 582.028H373.966C377.811 582.087 382.184 582.38 384.59 585.374C385.911 587.018 386.41 589.336 386.586 591.801C386.674 593.24 386.674 594.736 386.674 596.174C386.674 596.996 386.674 597.759 386.674 598.493C386.674 598.963 386.674 599.403 386.703 599.814C387.085 606.065 387.437 612.287 387.819 618.539C387.907 620.065 387.995 621.591 388.083 623.088C388.142 623.851 388.171 624.643 388.23 625.436C388.67 632.773 389.11 640.11 389.55 647.477C389.609 648.24 389.638 649.032 389.697 649.796C389.815 651.85 389.932 653.904 390.079 655.959C390.137 657.074 390.196 658.248 389.932 659.305L389.873 659.334Z" fill="#FF7B97"/>
<path d="M393.571 437.366C391.34 435.429 389.432 433.169 387.936 430.616C387.671 430.175 386.938 430.117 386.497 430.205C386.233 430.263 385.412 430.498 385.676 430.938C387.261 433.58 389.256 435.957 391.546 437.982C391.956 438.334 392.661 438.334 393.13 438.188C393.483 438.07 393.952 437.718 393.541 437.366H393.571Z" fill="#ED7D6B"/>
<path d="M301.768 464.015C300.535 462.841 298.891 462.283 297.424 461.491C295.898 460.669 294.489 459.642 293.198 458.468C292.816 458.116 292.082 458.116 291.613 458.263C291.261 458.38 290.791 458.703 291.202 459.084C292.493 460.317 293.961 461.344 295.516 462.225C296.925 463.017 298.569 463.487 299.772 464.631C300.153 464.984 300.887 464.983 301.357 464.837C301.709 464.719 302.149 464.397 301.768 464.015Z" fill="#ED7D6B"/>
<path d="M350.634 510.152C349.401 506.483 348.169 502.815 346.906 499.146C345.703 495.595 344.588 491.955 342.944 488.58C342.005 486.643 340.919 484.794 339.863 482.916C339.481 482.211 337.192 482.476 337.632 483.239C339.51 486.496 341.271 489.754 342.563 493.276C343.854 496.886 345.028 500.525 346.261 504.135C346.965 506.248 347.67 508.332 348.403 510.445C348.638 511.179 350.957 511.003 350.634 510.123V510.152Z" fill="#ED7D6B"/>
<path d="M381.217 465.6C377.02 463.311 372.794 461.021 368.949 458.174C368.509 457.852 367.863 457.793 367.364 457.969C367.041 458.057 366.513 458.439 366.953 458.791C370.915 461.755 375.259 464.103 379.573 466.451C380.043 466.715 380.747 466.715 381.217 466.451C381.628 466.216 381.657 465.835 381.217 465.6Z" fill="#ED7D6B"/>
<path d="M375.58 548.1C373.437 552.562 370.121 556.377 366.012 559.136C365.542 559.429 366.129 559.869 366.423 559.958C366.951 560.134 367.567 560.046 368.008 559.752C372.204 556.935 375.638 553.002 377.81 548.423C378.192 547.631 375.903 547.396 375.58 548.1Z" fill="#ED7D6B"/>
<path d="M301.737 539.648C298.92 537.212 296.542 534.365 294.664 531.137C294.253 530.462 291.993 530.696 292.434 531.46C294.341 534.776 296.836 537.74 299.741 540.264C300.152 540.616 300.857 540.616 301.326 540.47C301.679 540.352 302.148 540 301.737 539.648Z" fill="#ED7D6B"/>
<path d="M274.385 425.333C274.209 425.186 273.915 425.098 273.68 425.069C273.181 425.01 272.594 425.069 272.242 425.479C272.154 425.597 271.949 425.832 271.802 425.978C271.626 426.184 271.45 426.36 271.274 426.536C270.921 426.918 270.54 427.299 270.129 427.651C269.366 428.356 268.544 429.001 267.664 429.588C267.517 429.676 267.458 429.882 267.546 430.058C267.634 430.234 267.898 430.351 268.075 430.41C268.603 430.557 269.19 430.498 269.659 430.205C271.479 428.972 273.064 427.505 274.443 425.802C274.561 425.656 274.443 425.45 274.326 425.333H274.385Z" fill="#ED7D6B"/>
<path d="M352.279 414.151C349.491 412.507 346.732 410.658 343.768 409.367C341.479 408.369 338.778 407.635 337.194 405.581C336.871 405.17 336.254 405.082 335.756 405.17C335.521 405.199 334.611 405.493 334.934 405.903C336.636 408.134 339.307 409.014 341.801 410.071C344.912 411.392 347.759 413.299 350.636 415.002C351.076 415.266 351.839 415.236 352.279 415.002C352.719 414.767 352.69 414.415 352.279 414.151Z" fill="#ED7D6B"/>
<path d="M389.638 649.825C389.609 649.062 389.55 648.269 389.492 647.506C385.618 647.741 381.744 647.947 377.869 648.123L376.49 625.612C380.393 625.583 384.297 625.524 388.171 625.494C388.112 624.731 388.083 623.939 388.024 623.147C384.121 623.205 380.217 623.235 376.314 623.264L374.758 597.877L386.616 598.552C386.616 597.818 386.616 597.026 386.616 596.233L374.612 595.558L374.377 591.86L373.79 582.087C373.027 582.087 372.234 582.087 371.442 582.058L372.058 591.89L372.264 595.441C363.723 594.971 354.948 594.502 346.202 594.502C346.202 593.621 346.202 592.741 346.172 591.89C346.114 588.485 346.055 585.081 346.026 581.705C345.262 581.705 344.47 581.705 343.707 581.676C343.736 585.081 343.795 588.485 343.854 591.919C343.854 592.799 343.854 593.68 343.883 594.56C341.858 594.56 339.833 594.619 337.808 594.707C331.527 594.971 325.188 595.588 318.936 596.263C318.995 594.825 319.083 593.357 319.142 591.919C319.318 588.397 319.494 584.875 319.67 581.324C318.907 581.324 318.114 581.324 317.351 581.295C317.175 584.846 316.999 588.368 316.823 591.919C316.735 593.445 316.676 595.001 316.618 596.527C314.857 596.732 313.125 596.908 311.364 597.114C304.702 597.877 297.922 598.669 291.113 599.139L291.465 591.89L291.964 581.94C291.143 581.999 290.379 582.087 289.616 582.175L289.147 591.89L288.765 599.286C285.713 599.462 282.631 599.579 279.579 599.608C279.52 600.372 279.462 601.164 279.432 601.927C282.514 601.927 285.596 601.78 288.648 601.604L287.562 623.323C284.363 623.323 281.164 623.264 277.965 623.235C277.906 623.998 277.847 624.79 277.789 625.553C281.017 625.583 284.216 625.612 287.445 625.641L286.271 649.443C282.514 649.355 278.757 649.267 275 649.15C274.912 649.913 274.824 650.705 274.736 651.469C278.552 651.586 282.338 651.674 286.153 651.762L285.772 659.334H288.09L288.472 651.791C296.719 651.938 304.995 652.026 313.272 652.026C313.712 652.026 314.123 652.026 314.563 652.026C314.505 654.462 314.446 656.898 314.387 659.334H316.706C316.764 656.898 316.823 654.462 316.882 652.026C326.42 652.026 335.988 651.879 345.527 651.645C345.615 654.198 345.732 656.781 345.849 659.334H348.168C348.051 656.751 347.963 654.169 347.845 651.586C357.12 651.351 366.394 650.999 375.639 650.559L376.167 659.334H378.486L377.928 650.441C381.802 650.236 385.676 650.06 389.55 649.825H389.638ZM314.681 649.708C305.993 649.708 297.306 649.649 288.648 649.473L289.822 625.641C298.333 625.729 306.874 625.759 315.414 625.788C315.121 633.771 314.886 641.725 314.651 649.708H314.681ZM315.502 623.44C306.962 623.44 298.45 623.352 289.939 623.293L291.025 601.399C297.981 600.9 304.878 600.107 311.687 599.315C313.301 599.139 314.915 598.933 316.559 598.757C316.177 606.975 315.825 615.193 315.532 623.411L315.502 623.44ZM337.955 596.938C339.95 596.85 341.975 596.82 343.971 596.791C344.147 605.684 344.353 614.577 344.617 623.469C335.695 623.469 326.772 623.469 317.85 623.469C318.144 615.164 318.525 606.828 318.907 598.523C325.246 597.818 331.644 597.202 337.984 596.938H337.955ZM316.999 649.678C317.205 641.725 317.469 633.742 317.762 625.788C322.106 625.788 326.45 625.788 330.823 625.788C335.46 625.788 340.068 625.788 344.705 625.788C344.94 633.624 345.204 641.46 345.527 649.297C336.017 649.532 326.538 649.649 317.029 649.678H316.999ZM346.319 596.791C355.065 596.791 363.87 597.261 372.469 597.73L374.054 623.264C365.044 623.352 356.004 623.411 346.965 623.44C346.701 614.547 346.495 605.654 346.319 596.762V596.791ZM347.816 649.238C347.522 641.431 347.258 633.595 347.023 625.788C356.092 625.759 365.132 625.7 374.171 625.612L375.551 648.211C366.306 648.651 357.061 648.974 347.816 649.238Z" fill="white"/>
<path d="M55.2944 114.612C55.0889 114.025 54.5313 113.585 53.9737 113.292C52.9464 112.763 51.7138 112.675 50.6278 112.822C49.2191 112.998 47.9277 113.644 47.194 114.847C46.7244 115.581 46.4896 116.52 46.2842 117.371C46.1081 118.105 46.0494 118.868 46.2255 119.631C46.3722 120.247 46.5483 120.629 46.9885 121.099C47.4288 121.568 48.1038 121.862 48.6908 122.038C49.3365 122.243 50.0996 122.273 50.7452 122.184C51.0094 122.155 51.3616 122.067 51.7138 121.95C52.741 121.979 54.003 121.803 54.7367 121.04C55.4998 120.218 55.4998 118.897 55.5585 117.841C55.6172 116.784 55.6759 115.64 55.2944 114.642V114.612Z" fill="white"/>
<path d="M140.757 170.112C140.493 169.554 139.994 169.202 139.436 168.967C138.996 168.674 138.409 168.527 138.027 168.468C137.352 168.38 136.618 168.38 135.973 168.615C135.621 168.732 135.21 168.879 134.946 169.173C134.212 169.906 134.182 170.934 133.977 171.902C133.684 173.34 133.595 174.72 133.889 176.158C133.948 176.451 134.036 176.657 134.241 176.862C134.593 177.185 135.063 177.332 135.533 177.42C136.472 177.625 137.587 177.596 138.467 177.126C139.465 176.598 140.228 175.747 140.581 174.69C140.874 173.751 141.021 172.783 141.05 171.785C141.05 171.227 141.05 170.64 140.786 170.141L140.757 170.112Z" fill="white"/>
<path d="M115.106 81.9761C115.106 81.9761 114.959 81.8 114.901 81.7119C114.842 81.5652 114.724 81.4184 114.607 81.301C114.607 81.301 114.548 81.2423 114.519 81.2423C112.993 79.7455 110.351 79.6575 108.473 80.4792C108.121 80.626 107.681 81.0075 107.681 81.4478C107.681 81.888 108.121 82.2402 108.473 82.4163C108.708 82.5337 108.972 82.6217 109.266 82.6804C108.913 83.9131 109.06 85.3219 109.735 86.4078C109.97 86.76 110.322 86.9654 110.704 87.1122C111.203 87.3176 111.79 87.4057 112.318 87.4057C112.787 87.4057 113.228 87.347 113.668 87.2296C114.02 87.1415 114.754 86.8187 114.901 86.4078C115.165 85.6447 115.429 84.8816 115.517 84.0598C115.576 83.3555 115.488 82.563 115.106 81.9761Z" fill="white"/>
<path d="M181.584 18.6698C180.997 18.0828 180.087 17.7893 179.294 17.6719C178.062 17.4958 176.682 17.7013 175.685 18.4643C174.863 19.0807 174.511 20.3427 175.479 21.0471C175.596 21.1351 175.743 21.1938 175.89 21.2525C175.655 21.4286 175.42 21.6928 175.45 21.9862C175.508 22.5732 175.685 23.1602 176.007 23.6592C176.448 24.3342 176.976 24.7744 177.651 25.1853C178.032 25.3614 178.414 25.4788 178.825 25.5375C179.294 25.5962 179.764 25.5962 180.263 25.5375C180.674 25.4788 181.085 25.3614 181.437 25.1853C181.73 25.0386 181.965 24.8625 182.112 24.569C182.758 22.72 183.051 20.1666 181.554 18.6111L181.584 18.6698Z" fill="white"/>
<path d="M102.545 219.917C102.31 219.301 101.958 218.773 101.518 218.303C101.459 218.215 101.4 218.157 101.312 218.068C101.254 218.01 101.166 217.98 101.107 217.922C100.813 217.658 100.52 217.452 100.168 217.247C99.522 216.865 98.6415 216.806 97.9078 216.865C97.2621 216.924 96.4403 217.041 95.9414 217.511C95.6479 217.804 95.3837 218.127 95.1783 218.509C94.9728 218.861 94.8848 219.272 94.7674 219.653C94.5913 220.358 94.7087 221.062 94.9435 221.737C95.0902 222.148 95.824 222.441 96.1762 222.559C96.3816 222.618 96.5871 222.647 96.8219 222.676C97.0566 223.028 97.3501 223.322 97.7023 223.586C98.4654 224.144 99.4339 224.29 100.373 224.232C100.813 224.202 101.224 224.114 101.635 223.968C101.958 223.85 102.486 223.615 102.604 223.263C102.78 222.735 102.926 222.148 102.897 221.561C102.897 221.003 102.75 220.416 102.545 219.888V219.917Z" fill="white"/>
<path d="M152.879 117.313C152.585 116.608 151.969 116.08 151.294 115.728C150.766 115.434 150.179 115.287 149.592 115.199C148.741 115.082 147.831 115.141 146.98 115.375C146.569 115.493 145.952 115.757 145.747 116.197C145.571 116.579 145.718 116.99 146.011 117.254C146.217 117.43 146.481 117.547 146.745 117.665C146.745 117.694 146.745 117.723 146.745 117.753C146.481 118.956 146.686 120.247 147.185 121.392C147.273 121.509 147.361 121.597 147.449 121.715C147.655 121.891 147.889 122.008 148.154 122.096C148.653 122.302 149.24 122.39 149.768 122.39C150.237 122.39 150.678 122.331 151.118 122.214C151.499 122.096 152.174 121.803 152.351 121.392C152.908 120.13 153.466 118.692 152.879 117.313Z" fill="white"/>
<path d="M33.1928 49.105C32.7819 48.4887 32.0188 48.2539 31.3144 48.1365C30.4046 48.0191 29.5241 48.1365 28.7023 48.4887C28.0273 48.7821 27.5284 49.2224 27.0881 49.78C26.7359 50.2203 26.5892 50.7192 26.4718 51.2475C26.3837 51.6584 26.9707 52.0693 27.2642 52.216C27.3816 52.2747 27.5284 52.3334 27.6458 52.3921C27.9393 53.2432 28.4382 54.0357 29.0839 54.6813C29.2306 54.7694 29.3774 54.8574 29.4948 54.9455C29.7589 55.0922 30.0524 55.1803 30.3459 55.239C30.9035 55.3564 31.5199 55.4151 32.0775 55.2977C32.4884 55.239 32.8993 55.1216 33.2515 54.9455C33.4863 54.8574 33.6624 54.7107 33.8091 54.5052C33.9558 54.3585 34.0439 54.1824 34.0439 53.977C34.3961 52.3334 34.0439 50.5137 33.1341 49.105H33.1928Z" fill="white"/>
<path d="M531.543 125.472C531.513 124.503 531.513 123.417 531.014 122.537C530.222 121.128 528.461 120.57 526.935 120.6C525.438 120.6 523.912 121.128 523.12 122.449C522.591 123.329 522.415 124.474 522.386 125.472C522.327 126.704 522.533 127.908 522.943 129.082C523.09 129.492 523.824 129.786 524.176 129.903C524.44 129.991 524.734 130.021 525.057 130.05C525.409 130.314 525.849 130.49 526.26 130.637C527.463 130.989 528.872 130.931 530.046 130.373C530.985 129.933 531.425 129.17 531.601 128.172C531.748 127.291 531.601 126.352 531.601 125.472H531.543Z" fill="white"/>
<path d="M598.781 153.647C598.664 152.825 598.223 152.179 597.431 151.827C597.02 151.651 596.609 151.534 596.169 151.446C596.14 151.446 596.11 151.387 596.081 151.358C595.699 151.005 594.995 150.8 594.467 150.741C593.792 150.653 593.058 150.653 592.412 150.888C592.236 150.947 592.06 151.035 591.884 151.093C591.59 151.24 591.356 151.416 591.18 151.71C590.769 153.001 590.534 154.351 590.651 155.701C590.71 156.288 590.827 156.963 591.18 157.462C591.473 157.844 591.796 158.167 592.266 158.372C592.999 158.724 593.821 158.9 594.643 158.871C595.817 158.871 597.49 158.519 597.989 157.286C598.135 156.934 598.194 156.552 598.282 156.2C598.37 155.877 598.458 155.525 598.546 155.202C598.664 154.703 598.81 154.175 598.752 153.647H598.781Z" fill="white"/>
<path d="M532.598 207.679C532.452 207.033 532.217 206.417 531.689 205.977C531.014 205.448 530.162 205.125 529.311 205.037C528.137 204.92 526.875 204.979 525.819 205.536C525.76 205.566 525.701 205.595 525.672 205.654C525.467 205.712 525.232 205.771 525.056 205.888C524.733 206.065 524.205 206.417 524.263 206.857C524.381 207.532 524.527 208.207 524.733 208.853C524.909 209.381 525.085 209.939 525.349 210.408C525.819 211.23 526.553 211.729 527.433 212.022C528.402 212.316 529.517 212.287 530.485 212.022C531.131 211.846 531.777 211.465 532.129 210.849C532.276 210.584 532.334 210.232 532.422 209.939C532.481 209.675 532.54 209.41 532.598 209.146C532.687 208.677 532.716 208.178 532.598 207.708V207.679Z" fill="white"/>
<path d="M509.032 25.4201C508.474 24.569 507.535 24.1581 506.537 24.0113C505.451 23.8352 504.277 23.982 503.279 24.4809C502.81 24.7157 502.282 25.1266 502.076 25.6549C501.988 25.8603 501.959 26.0364 501.988 26.2419C501.929 26.3299 501.841 26.3886 501.783 26.4767C501.665 26.9756 501.548 27.4452 501.548 27.9735C501.548 28.4724 501.695 28.9713 501.841 29.4409C502.106 30.3214 502.722 31.1138 503.426 31.6715C504.16 32.2585 505.187 32.3758 506.097 32.3172C506.86 32.2585 507.917 32.053 508.328 31.3486C508.885 30.3801 509.237 29.2648 509.413 28.1789C509.56 27.2984 509.56 26.2419 509.032 25.4494V25.4201Z" fill="white"/>
<path d="M659.886 46.8157C659.564 45.4949 658.83 44.409 657.568 43.8514C656.658 43.4405 655.601 43.3525 654.633 43.5579C654.251 43.6459 653.899 43.7633 653.547 43.9688C653.195 44.2036 653.077 44.409 652.96 44.7906C652.784 45.5536 652.578 46.2874 652.402 47.0505C652.402 47.1092 652.402 47.1679 652.402 47.1972C652.08 47.4026 651.669 47.6961 651.727 48.0777C651.962 49.1636 651.493 50.2495 651.962 51.3061C652.784 53.1844 655.543 53.5073 657.245 52.9496C658.008 52.7149 658.712 52.2453 659.065 51.5115C659.27 51.0713 659.387 50.5724 659.505 50.0734C659.798 48.9875 660.063 47.8722 659.798 46.757L659.886 46.8157Z" fill="white"/>
<path d="M585.194 96.8854C585.164 96.5626 585.105 96.181 584.9 95.8876C584.665 95.5354 584.342 95.3006 583.99 95.1245C583.344 94.7723 582.552 94.6842 581.818 94.6842C581.085 94.6842 580.292 94.831 579.647 95.1538C578.971 95.506 578.502 95.9756 578.355 96.7387C578.267 97.2083 578.385 97.7072 578.561 98.1768C578.561 98.2355 578.502 98.2942 578.502 98.3529C578.267 100.026 578.443 101.669 578.883 103.313L579.148 103.636C579.353 103.812 579.588 103.929 579.852 104.017C580.351 104.223 580.938 104.311 581.466 104.311C581.936 104.311 582.376 104.252 582.816 104.135C583.227 104.017 583.843 103.724 584.049 103.313C585.017 101.347 585.458 99.0573 585.194 96.8854Z" fill="white"/>
<path d="M584.841 29.9399C583.843 29.1768 582.493 28.9714 581.26 29.1475C580.82 29.2062 580.263 29.3236 579.852 29.5584C579.441 29.7931 579.235 29.9692 578.971 30.3214C578.795 30.5562 578.678 30.9378 578.678 31.2313C578.678 31.4954 578.795 31.7302 578.942 31.9356C578.824 32.3172 578.766 32.7574 578.824 33.139C578.913 33.9901 579.294 34.7238 579.91 35.3108C580.057 35.3989 580.204 35.4869 580.321 35.5749C580.497 35.6336 580.673 35.7217 580.85 35.7804C581.407 35.9565 581.994 35.9858 582.552 35.9565C582.992 35.9271 583.403 35.8391 583.814 35.6923C584.137 35.5749 584.665 35.3402 584.782 34.988C585.076 34.1075 585.428 33.227 585.633 32.3465C585.839 31.4661 585.575 30.4975 584.812 29.9399H584.841Z" fill="white"/>
</svg>
